<?xml version="1.0" encoding="utf-8"?>
<!-- Generator: Adobe Illustrator 19.0.0, SVG Export Plug-In . SVG Version: 6.00 Build 0)  -->
<svg version="1.1" id="Layer_1" xmlns="http://www.w3.org/2000/svg" xmlns:xlink="http://www.w3.org/1999/xlink" x="0px" y="0px"
	 viewBox="0 0 100 100" style="enable-background:new 0 0 100 100;" xml:space="preserve">
<style type="text/css">
	.st0{fill:#FFFFFF;}
</style>
<g id="XMLID_32_">
	<path id="XMLID_30_" class="st0" d="M8.7,53.8c0,0,10.8,10.7,26.2,15.8c-5.2-4.6-8.4-11.3-8.4-18.7c0-6.6,2.5-12.5,6.6-17
		C18.7,40.9,8.7,53.8,8.7,53.8z"/>
	<path id="XMLID_29_" class="st0" d="M69,33.9c4.1,4.4,6.6,10.4,6.6,17c0,7.4-3.2,14-8.3,18.6c15.2-5.2,26-15.7,26-15.7
		S83.4,40.9,69,33.9z"/>
	<path id="XMLID_28_" class="st0" d="M52,33c0.6-0.4,0.9-1.2,0.5-1.8c-0.4-0.6-1.8-0.9-3.4,0.7c-6.7,6.6-1.1,16.5,0.3,17.4
		C48.4,47.6,45.3,38.3,52,33z"/>
	<path id="XMLID_27_" class="st0" d="M48.8,50.3c-1.7-0.9-9-7.4-5.9-15.4c0.3-0.7,0.1-1.5-0.5-1.8c-0.6-0.3-2,0.1-2.6,2.3
		C37.3,44.5,47.1,50.3,48.8,50.3z"/>
	<path id="XMLID_26_" class="st0" d="M50.4,48.7c0-1.9,1.9-11.5,10.4-12.8c0.7-0.1,1.4-0.6,1.3-1.4c0-0.7-1.1-1.7-3.3-1.1
		C49.7,35.8,49.6,47.2,50.4,48.7z"/>
	<path id="XMLID_25_" class="st0" d="M67,42.8c0.7,0.3,1.5,0.1,1.8-0.5c0.3-0.6-0.1-2-2.3-2.6c-9.1-2.5-14.9,7.3-14.9,9
		C52.6,47,59,39.6,67,42.8z"/>
	<path id="XMLID_24_" class="st0" d="M68.9,51.9c0.4,0.6,1.2,0.9,1.8,0.5c0.6-0.4,0.9-1.8-0.7-3.4c-6.6-6.7-16.5-1.1-17.4,0.3
		C54.3,48.3,63.6,45.1,68.9,51.9z"/>
	<path id="XMLID_23_" class="st0" d="M66,60.7c0.1,0.7,0.6,1.4,1.4,1.3c0.7,0,1.7-1.1,1.1-3.3c-2.3-9.1-13.8-9.2-15.2-8.4
		C55.2,50.3,64.8,52.2,66,60.7z"/>
	<path id="XMLID_22_" class="st0" d="M59.6,68.7c0.6,0.3,2-0.1,2.6-2.3c2.5-9.1-7.3-14.9-9-14.9c1.7,0.9,9,7.4,5.9,15.4
		C58.9,67.5,59,68.4,59.6,68.7z"/>
	<path id="XMLID_21_" class="st0" d="M52.6,52.5c1,1.7,4.1,11-2.6,16.3c-0.6,0.4-0.9,1.2-0.5,1.8c0.4,0.6,1.8,0.9,3.4-0.7
		C59.7,63.3,54.1,53.3,52.6,52.5z"/>
	<path id="XMLID_20_" class="st0" d="M51.6,53.1c0,1.9-1.9,11.5-10.4,12.8c-0.7,0.1-1.4,0.6-1.3,1.4c0,0.7,1.1,1.7,3.3,1.1
		C52.3,66,52.5,54.5,51.6,53.1z"/>
	<path id="XMLID_19_" class="st0" d="M50.4,53.1c-0.9,1.7-7.4,9-15.4,5.9c-0.7-0.3-1.5-0.1-1.8,0.5s0.1,2,2.3,2.6
		C44.6,64.6,50.4,54.8,50.4,53.1z"/>
	<path id="XMLID_18_" class="st0" d="M31.3,49.4c-0.6,0.4-0.9,1.8,0.7,3.4c6.6,6.7,16.5,1.1,17.4-0.3c-1.7,1-11,4.1-16.3-2.6
		C32.7,49.3,31.9,49,31.3,49.4z"/>
	<path id="XMLID_17_" class="st0" d="M48.8,51.5c-1.9,0-11.5-1.9-12.8-10.4c-0.1-0.7-0.6-1.4-1.4-1.3c-0.7,0-1.7,1.1-1.1,3.3
		C35.9,52.2,47.4,52.3,48.8,51.5z"/>
	<path id="XMLID_16_" class="st0" d="M87.6,36.1l12.4-3.5v-9.5l-18.1,8.6C83.9,33.1,85.8,34.6,87.6,36.1z"/>
	<path id="XMLID_15_" class="st0" d="M100,48.2v-3.5l-3.4-0.1C97.9,45.9,99,47.1,100,48.2z"/>
	<path id="XMLID_14_" class="st0" d="M0,44.6v6.1c1.3-1.6,3.1-3.6,5.1-5.7L0,44.6z"/>
	<path id="XMLID_13_" class="st0" d="M6.3,63.7L0,67v10.3l13.3-8.5C10.7,67,8.4,65.3,6.3,63.7z"/>
	<path id="XMLID_12_" class="st0" d="M87.6,69.3l12.4,8.3v-9.9l-5.3-3.4C92.6,65.9,90.2,67.6,87.6,69.3z"/>
	<path id="XMLID_11_" class="st0" d="M18.6,32.8L0,23.5v9.8l12.9,4.1C14.7,35.9,16.6,34.3,18.6,32.8z"/>
	<path id="XMLID_10_" class="st0" d="M0,0v6.6l26.1,21.3c1.4-0.8,2.8-1.5,4.2-2.2L9.1,0H0z"/>
	<path id="XMLID_9_" class="st0" d="M100,100v-4.2v-2.2L77.3,74.9c-1.7,0.8-3.4,1.5-5.2,2.2L89.6,100H100z"/>
	<path id="XMLID_8_" class="st0" d="M73.6,100l-9.4-20.4c-1.6,0.4-3.3,0.7-5,1l5.5,19.4H73.6z"/>
	<path id="XMLID_7_" class="st0" d="M25,0l11.6,23c1.3-0.5,2.7-0.9,4-1.2L33.7,0H25z"/>
	<path id="XMLID_6_" class="st0" d="M45.5,0l2.3,20.6c1.1-0.1,2.1-0.1,3.2-0.1c0,0,0,0,0,0L53.5,0H45.5z"/>
	<path id="XMLID_5_" class="st0" d="M64.5,0l-6.3,21.1c1.3,0.2,2.6,0.5,3.8,0.8L73.3,0H64.5z"/>
	<path id="XMLID_4_" class="st0" d="M89.6,0l-20,24.7c1.5,0.6,2.9,1.3,4.3,2.1L100,6.3V5.1V0H89.6z"/>
	<path id="XMLID_3_" class="st0" d="M53.1,100l-1.6-18.8c-0.2,0-0.4,0-0.6,0c-1.2,0-2.4,0-3.6-0.1L46.1,100H53.1z"/>
	<path id="XMLID_2_" class="st0" d="M34.5,100l5.3-19.9c-1.6-0.3-3.1-0.7-4.6-1.1l-9.2,21H34.5z"/>
	<path id="XMLID_1_" class="st0" d="M9,100l18.2-23.9c-1.7-0.7-3.4-1.5-5.1-2.4L0,93.5v6.5H9z"/>
</g>
</svg>
