<?xml version="1.0" encoding="utf-8"?>
<!-- Generator: Adobe Illustrator 19.0.0, SVG Export Plug-In . SVG Version: 6.00 Build 0)  -->
<svg version="1.1" id="Layer_1" xmlns="http://www.w3.org/2000/svg" xmlns:xlink="http://www.w3.org/1999/xlink" x="0px" y="0px"
	 viewBox="5 -25 120 120" style="enable-background:new 5 -25 120 120;" xml:space="preserve">
<style type="text/css">
	.st0{fill:#A00000;}
	.st1{fill:#FF0000;}
</style>
<path id="XMLID_55_" class="st0" d="M-163.3,94c-32.5,0-59-26.5-59-59s26.5-59,59-59s59,26.5,59,59S-130.8,94-163.3,94z M-163.3-15
	c-27.6,0-50,22.4-50,50s22.4,50,50,50s50-22.4,50-50S-135.8-15-163.3-15z"/>
<path id="XMLID_1_" class="st1" d="M-163.3-18c29.2,0,53,23.8,53,53s-23.8,53-53,53s-53-23.8-53-53S-192.6-18-163.3-18 M-163.3-25
	c-33.1,0-60,26.9-60,60s26.9,60,60,60s60-26.9,60-60S-130.2-25-163.3-25L-163.3-25z"/>
<path id="XMLID_393_" class="st1" d="M-198.8,43c0.2,0.4,0.5,1.1,0.9,1.5c3.1,3.5,6.2,6.9,9.3,10.4c4.5,4.9,9,9.9,13.5,14.8
	c0.8,0.8,1.5,1.1,2.7,0.8c5.3-1.3,10.5-2.4,15.8-3.7c5.6-1.3,11.1-2.7,16.6-4c1.3-0.3,2-1,2.4-2.4c1.3-4.5,2.7-9,4.1-13.5
	c1.7-5.7,3.4-11.5,5.2-17.2c0.7-2.2,0.5-4-1.2-5.8c-3-3.1-5.8-6.4-8.7-9.5c-4.4-4.8-8.8-9.7-13.3-14.4c-0.5-0.5-1.5-0.9-2.1-0.8
	c-10.7,2.4-21.4,4.9-32.1,7.4c-1.9,0.4-2.9,1.4-3.5,3.3c-3,10.1-6.1,20.1-9.1,30.1C-198.5,41-198.6,41.9-198.8,43z"/>
<path id="XMLID_381_" class="st0" d="M-198.8,43c0.2-1.1,0.4-2,0.6-2.8c3-10,6.1-20.1,9.1-30.1c0.6-1.9,1.6-2.9,3.5-3.3
	c10.7-2.4,21.4-5,32.1-7.4c0.6-0.1,1.6,0.3,2.1,0.8c4.5,4.8,8.9,9.6,13.3,14.4c2.9,3.2,5.7,6.5,8.7,9.5c1.7,1.8,2,3.5,1.2,5.8
	c-1.8,5.7-3.5,11.5-5.2,17.2c-1.4,4.5-2.8,9-4.1,13.5c-0.4,1.3-1.1,2.1-2.4,2.4c-5.6,1.3-11.1,2.7-16.6,4
	c-5.3,1.2-10.6,2.4-15.8,3.7c-1.2,0.3-1.9,0-2.7-0.8c-4.5-4.9-9-9.9-13.5-14.8c-3.1-3.4-6.2-6.9-9.3-10.4
	C-198.4,44.1-198.6,43.4-198.8,43z M-151.8,47.1c0-0.2-0.1-0.6-0.1-0.9c-1.8-8.5-3.7-16.9-5.5-25.4c-0.4-1.9-1.5-2.2-3-0.7
	c-6.1,5.9-12.2,11.8-18.3,17.6c-1.7,1.6-1.5,2.6,0.9,3.3c6,1.9,11.9,3.7,17.9,5.6c2,0.6,4,1.3,6.1,1.9
	C-152.5,48.9-151.8,48.5-151.8,47.1z M-185,13.7c0.6,6.8,1.3,13.8,2,20.7c0.1,0.6,0.4,1.5,0.7,1.5c0.5,0.1,1.3-0.3,1.7-0.7
	c6-5.7,12-11.5,18-17.3c0.4-0.4,0.9-1.2,0.7-1.7c-0.1-0.5-1-0.9-1.6-1c-6.3-1.4-12.7-2.7-19-4C-184.2,10.9-185.1,11.7-185,13.7z
	 M-132.4,28.2c-0.6-0.6-1-1.3-1.6-1.6c-6.1-2.7-12.2-5.3-18.4-8c-0.5-0.2-1.3-0.3-1.6,0c-0.3,0.4-0.5,1.1-0.4,1.7
	c1.8,8.3,3.6,16.5,5.4,24.8c0.1,0.6,0.6,1.4,1,1.5s1.2-0.5,1.6-0.9c4.3-5.2,8.6-10.5,12.9-15.7C-133.1,29.5-132.8,28.9-132.4,28.2z
	 M-172.2,65.8c0.8-0.3,1.2-0.5,1.6-0.7c5.2-3.7,10.4-7.4,15.6-11.2c0.4-0.3,1-1,0.9-1.5c-0.1-0.4-0.8-0.9-1.3-1.1
	c-2.1-0.7-4.2-1.3-6.4-2c-5.6-1.7-11.1-3.5-16.7-5.2c-0.6-0.2-1.3-0.1-1.9,0.1c-0.2,0.1-0.3,1-0.1,1.4c2.2,6.2,4.5,12.3,6.8,18.5
	C-173.5,64.9-172.7,65.3-172.2,65.8z M-136.7,21.9c0.1-0.1,0.2-0.2,0.2-0.3c-0.1-0.2-0.1-0.5-0.3-0.6c-4.6-5.1-9.1-10.1-13.7-15.2
	c-0.9-1-2-0.7-2.5,0.6c-0.5,1.5-0.9,2.9-1.4,4.4c-0.7,2.3-0.2,3.5,2.1,4.5c4.6,2,9.3,4.1,14,6.1C-137.7,21.6-137.2,21.7-136.7,21.9z
	 M-177.9,8.4c0,0.1,0,0.3,0,0.4c0.5,0.2,1.1,0.4,1.6,0.5c5.1,1,10.1,2.1,15.2,3.1c1.9,0.4,3.1-0.4,3.8-2.2c0.4-1.4,0.9-2.8,1.3-4.2
	c0.6-2.1,0-2.9-2.2-2.4c-6.1,1.4-12.2,2.8-18.3,4.3C-177.1,8-177.5,8.2-177.9,8.4z M-187.9,18.3c-0.4,0.6-0.6,0.9-0.7,1.2
	c-1.9,6.3-3.9,12.7-5.7,19c-0.4,1.4,0.3,2.2,1.7,2.1c1.3-0.1,2.6-0.4,3.9-0.6c2-0.3,2.9-1.5,2.8-3.5c-0.5-5.5-1-11-1.5-16.5
	C-187.6,19.5-187.8,19.1-187.9,18.3z M-133.5,35.9c-0.1,0-0.2-0.1-0.3-0.1c-0.2,0.1-0.4,0.2-0.6,0.4c-3.7,4.5-7.4,9-11,13.5
	c-0.9,1.1-0.7,2.6,0.3,3.7c0.9,0.9,1.8,1.8,2.7,2.7c1.6,1.6,2.6,1.3,3.3-0.9c1.8-6,3.6-11.9,5.4-17.9
	C-133.6,36.8-133.6,36.4-133.5,35.9z M-164.7,64.9c0.1,0.2,0.1,0.3,0.2,0.5c1.1-0.2,2.2-0.5,3.3-0.7c5.2-1.2,10.4-2.4,15.5-3.6
	c0.6-0.2,1.5-0.6,1.6-1.1s-0.4-1.3-0.8-1.8c-0.7-0.8-1.5-1.5-2.3-2.3c-1.6-1.5-2.9-1.7-4.8-0.3c-3.9,2.8-7.8,5.6-11.7,8.4
	C-163.9,64.2-164.3,64.6-164.7,64.9z M-178.8,60.9c0.1-0.6,0.1-0.7,0.1-0.8c-1.9-5.1-3.7-10.2-5.6-15.2c-0.5-1.4-2-2.1-3.6-1.9
	c-1.1,0.2-2.1,0.2-3.1,0.5c-0.7,0.2-1.7,0.5-1.9,1s0.3,1.4,0.8,1.9c4,4.4,8,8.8,12,13.3C-179.8,60-179.3,60.3-178.8,60.9z"/>
<path id="XMLID_64_" class="st0" d="M-103-27.3c-32.5,0-59-26.5-59-59s26.5-59,59-59s59,26.5,59,59S-70.5-27.3-103-27.3z
	 M-103-136.3c-27.6,0-50,22.4-50,50s22.4,50,50,50s50-22.4,50-50S-75.4-136.3-103-136.3z"/>
<path id="XMLID_53_" class="st0" d="M-106.7-31.6c-2-11.5-5.7-20-11.6-26.8c-3.7-4.3-8.3-7.6-13.6-9.9c-2.7-1.2-3.7-3-3.4-6.2
	c0.7-5.8,1.2-11.7,1.7-17.5c0.3-2.7,0.5-5.4,0.8-8.2l0.6-5.7c0-0.1,0.2-2.6,1.9-2.7l0,0c1.4,0,1.9,1.6,2,2.5l1,5.7l0.8,5
	c0.8,4.8,1.6,9.7,2.4,14.5c0,0,0,0,0.1,0.1c0.3-0.3,0.4-0.4,0.4-0.4c1.3-6.6,2.5-13.5,3.5-20.3c0.4-2.5,0.6-5,0.8-7.5l0.1-1.1
	l0.5-4.4c0-0.1,0.3-2.7,2.1-2.8l0,0c1.9,0,2.2,2.5,2.3,2.7l0.7,4.4l0.8,6.9c0.7,6.4,1.5,13,2.4,19.5l0,0c0,0,0.1,0.1,0.3,0.3
	c0.2-0.2,0.3-0.3,0.3-0.3c1.3-9.9,2.6-20.3,3.7-31l0.7-7.2l0.5-5.1c0-0.1,0.2-2.9,2.2-2.9c1.9,0,2.1,2.7,2.1,2.9l0.6,5.1l0.4,4.2
	c1.1,11.3,2.4,22.9,3.5,33.1v0.2c0,0.2,0,0.3,0,0.5c0,0.3,0.1,0.4,0.1,0.4l0,0c0,0,0.2,0.1,0.4,0.4l0,0c0.8-4.7,1.7-9.8,2.2-14.9
	c0.4-3.1,0.6-6.4,0.8-9.5c0.1-1.1,0.2-2.1,0.2-3.1l0.4-4c0-0.1,0.2-2.7,2.2-2.7c1.5,0,2.1,1.7,2.2,2.6l0.7,4c0,0.1,1.6,11,1.6,11
	c0.9,6,1.7,12,2.6,18v0.2c0,0.1,0.1,0.5,0.1,0.6c0.1,0.2,0.3,0.3,0.5,0.5l0.1-0.1c1.2-5.7,2.2-11.3,3.1-16.6
	c0.1-0.8,0.2-1.5,0.3-2.3l0.8-4c0-0.1,0.3-2.2,2-2.2c1.4,0,1.8,1.5,1.9,2.4l0.6,4.1v0.3c0.3,3,0.6,6,1,8.9c0.4,3.6,0.8,7.4,1.2,11.1
	l0.4,4.1c0.2,1.6,0.5,5.1-3.4,6.8c-11.5,5-19.3,14.5-23.1,28.2c-0.7,2.5-1.2,5.2-1.8,8.7l-0.5,2.9h-6.6L-106.7-31.6z"/>
<path id="XMLID_50_" class="st1" d="M-104-32c-2.1-12-6-20.9-12.3-28.1c-4-4.6-8.9-8.2-14.6-10.6c-1.6-0.7-1.9-1.3-1.7-3.3
	c0.7-5.8,1.2-11.8,1.7-17.5c0.3-2.7,0.5-6.3,0.8-9v-0.1c0.3,1.6,0.5,4.1,0.8,5.7c0.8,4.8,1.6,9.8,2.4,14.7c0.2,0.9,0.7,1.5,1.3,2.1
	c0.2,0.2,1.3,1.4,1.3,1.4s1.2-1.1,1.5-1.3c0.8-0.6,1.6-1.4,1.8-2.4c1.3-6.8,2.5-13.7,3.5-20.5c0.4-2.6,0.6-5.2,0.8-7.8
	c0-0.4,0.1-0.7,0.1-1.1c0.1,0.4,0.8,6.9,0.8,6.9c0.7,6.4,1.5,13,2.4,19.5c0.1,1,0.9,1.7,1.6,2.4c0.3,0.3,1.5,1.5,1.5,1.5
	s1.2-1.2,1.5-1.5c0.7-0.7,1.4-1.4,1.6-2.4c1.3-9.9,2.6-20.4,3.8-31.1l0.6-7.3l0.4,4.2c1.1,11.1,2.3,22.2,3.5,33.4c0,0.1,0,0.2,0,0.3
	c0,0.5,0.1,1.2,0.5,1.7c0.5,0.8,2.7,2.4,2.7,2.4s2.5-1.2,2.8-2.9c0.7-4.1,1.7-9.6,2.3-15.1c0.4-3.2,0.6-6.5,0.8-9.7
	c0.1-1,0.1-2,0.2-3c0,0.1,1.4,9.9,1.4,9.9c0.9,6.3,1.8,12.7,2.8,19v0.2c0.1,0.6,0.2,1.3,0.6,1.9c0.5,0.6,1,1.1,1.5,1.5
	c0.2,0.2,0.4,0.4,0.6,0.5l0.7,0.7l0.7-0.7c0.2-0.2,0.4-0.4,0.6-0.6c0.6-0.5,1.3-1.1,1.4-2c1.1-5.5,2.1-11,3.1-16.7
	c0.1-0.8,0.2-1.6,0.3-2.4c0,0.1,0,0.2,0,0.2c0.7,6.7,1.3,13.5,1.9,20.2l0.4,4.1c0.2,2.2,0,3.2-1.8,4c-12.4,5.4-20.7,15.5-24.7,30.1
	c-0.7,2.6-1.3,5.4-1.9,9c0,0.2-0.1,0.4-0.1,0.5h-1.9C-103.9-31.3-103.9-31.7-104-32z"/>
<path id="XMLID_36_" class="st1" d="M-103-139.3c29.2,0,53,23.8,53,53s-23.8,53-53,53s-53-23.8-53-53S-132.2-139.3-103-139.3
	 M-103-146.3c-33.1,0-60,26.9-60,60s26.9,60,60,60s60-26.9,60-60S-69.9-146.3-103-146.3L-103-146.3z"/>
<g>
	<path class="st0" d="M65,94C32.5,94,6,67.5,6,35C6,2.5,32.5-24,65-24c32.5,0,59,26.5,59,59C124,67.5,97.5,94,65,94z M65-15
		C37.4-15,15,7.4,15,35s22.4,50,50,50s50-22.4,50-50S92.6-15,65-15z"/>
	<path id="XMLID_54_" class="st1" d="M65-18c29.2,0,53,23.8,53,53S94.2,88,65,88S12,64.2,12,35S35.8-18,65-18 M65-25
		C31.9-25,5,1.9,5,35s26.9,60,60,60s60-26.9,60-60S98.1-25,65-25L65-25z"/>
	<path id="XMLID_237_" class="st0" d="M62.5,24.5l-2-1.8c-1.3-1.2-2.7-2.5-3.9-4c-0.9-1.1-0.9-2.3-0.3-3.5c1-1.8,1.3-3.5,0.7-5.3
		c-0.5-1.5-1.4-1.8-2.1-1.9c-0.1,0-0.2,0-0.4,0c-0.7,0-1.6,0.2-2.3,1.5c-0.5,0.9-0.6,1.8-0.4,3c0.1,0.4,0.1,1,0,1.6
		c-0.4,1.7-0.5,3.2-0.3,4.7c0,0.2,0,0.4,0,0.6v3.9l-3.4-1.7c-1.2-0.6-2.3-1.3-3.2-2.2l1.4,5.4l-5-3c-3.3-2-3.9-7.3-4-8.8
		c-0.1-1.9-0.2-6.5,2.4-8.7l2.5-2.2c1.2-1.7,2.5-3,4.1-4l5.9-3.8L51-2.6c0.9-0.3,1.8-0.5,2.8-0.5l0.4-0.1h2.5c0,0,0.6,0.1,0.8,0.1
		C58-3,58.6-2.9,59.2-2.8c5.6,1.3,9.4,5,10.9,10.7c0.9,3.4,0.6,6.9-0.9,10.7c-0.8,2-1.8,3.8-3,5.4c-0.1,0.1-0.1,0.2-0.2,0.3
		l-1.6,1.9L62.5,24.5z"/>
	<path id="XMLID_204_" class="st1" d="M56.5-0.8c0.7,0.1,1.4,0.2,2.1,0.4c4.9,1.2,7.9,4.3,9.2,9.1c0.9,3.1,0.4,6.2-0.8,9.1
		c-0.7,1.7-1.6,3.3-2.7,4.8c-0.1,0.1-0.1,0.1-0.2,0.2c-0.6-0.6-1.3-1.2-1.9-1.8c-1.3-1.2-2.6-2.4-3.7-3.8c-0.2-0.3-0.3-0.5-0.1-0.8
		c1.3-2.3,1.7-4.7,0.9-7.2c-0.7-2-2-3.3-4.2-3.5s-3.9,0.8-5,2.7c-0.8,1.5-1,3-0.6,4.7c0,0.2,0,0.4,0,0.5c-0.5,1.8-0.6,3.7-0.3,5.6
		c0,0.1,0,0.2,0,0.4c-2.9-1.5-4.8-3.8-5.8-7c-1.1,2.4-1.5,4.7-0.9,7.2c-3.2-2-4.1-11.4-1.3-13.8c0.2,0.8,0.3,1.7,0.5,2.5
		c0,0.1,0.1,0.2,0.2,0.3c0.3-1.9,1-3.5,2-5S46,1,47.6-0.1c-0.3,0.8-0.5,1.6-0.4,2.6c0.9-1.1,1.9-1.8,3.1-2.3c1.3-0.6,2.6-0.9,3.9-1
		c0.1,0,0.2,0,0.3-0.1C55.1-0.8,55.8-0.8,56.5-0.8z"/>
	<path id="XMLID_116_" class="st0" d="M73.6,45.3c-0.7-0.5-1.3-1-1.8-1.5c-0.9-0.8-1.6-1.4-2.5-1.7l-3-1.1l1.9-2.6l0.4-0.5
		c0.3-0.4,0.6-0.7,0.8-1.1c0.2-0.3,0.5-0.6,0.7-0.9l0.8-2.2c1.6-4.5,5.2-8.9,8.6-11c3.4-2.1,8.5-2.3,8.8-2.3h0.1
		c4.5,0.2,8.5,2.1,10.7,3.2c1.9,0.9,3.5,2.1,5,3.5c0,0,0.6,0.6,1.2,1.6c0.6,0.9,1.9,4.6,1.9,4.6l-3.2-1.6l-1.6-0.4
		c-0.6-0.1-1.4-0.1-2-0.1c-0.9,0-1.8,0.1-3.1,0.4c-1.2,0.3-2.1,0.6-3,1c-0.2,0.1-0.4,0.2-0.6,0.4l-0.4,0.3L91.9,34l-1.2-0.7
		l-0.2-0.2c-0.1-0.1-0.2-0.1-0.3-0.2c-0.8-0.4-1.5-0.6-2.3-0.6s-1.6,0.2-2.5,0.5c-1,0.4-1.8,1.1-2.8,2.4c-2.1,2.6-3.8,5.5-5.2,8.6
		c-0.1,0.1-0.1,0.2-0.2,0.3L76,46.7L73.6,45.3z"/>
	<path id="XMLID_203_" class="st1" d="M102.7,29.1c-2-0.5-4-0.2-6,0.2c-1.2,0.3-2.4,0.6-3.6,1.2c-0.4,0.2-0.8,0.4-1.2,0.7
		c-0.2-0.1-0.5-0.3-0.7-0.4c-2.2-1.1-4.5-1-6.8-0.1c-1.6,0.6-2.8,1.8-3.8,3.1c-2.2,2.8-4.1,5.9-5.5,9.2c-0.1,0.1-0.1,0.3-0.2,0.4
		C73.3,42.3,72,40.7,70,40c0.4-0.5,0.8-1,1.2-1.5c2.4-3,5.1-5.7,8.4-7.7c2.2-1.4,4.5-2.3,7-2.8c0.4-0.1,0.8-0.1,1.1-0.2
		c-0.6,0-1.2,0-1.7,0c-3.2,0.3-6.1,1.5-8.7,3.2c-1.5,1-2.9,2.1-4,3.5c-0.1,0.1-0.1,0.1-0.2,0.1c1.4-4.2,4.1-7.4,7.7-9.8
		c0,0,0.1,0,0.1,0.1c-0.1,0.2-0.2,0.3-0.3,0.5c-0.3,0.5-0.2,0.5-0.5,1.1C80,26.7,80,27,80.2,27.1c0.1,0.1,0.5,0.1,0.6,0
		c0.6-0.3,1.1-0.7,1.6-1.1c1.2-1,1.9-1.5,3.3-2.2c0.7-0.3,1.5-0.5,2.3-0.8c0.1,0,0.3,0,0.5,0c-0.5,0.3-0.8,0.5-1.2,0.7
		c-0.4,0.3-0.4,0.4-0.8,0.8c-0.2,0.2-0.3,0.5-0.1,0.8c0.2,0.3,0.5,0.3,0.8,0.2c0.9-0.3,1.5-0.4,2.4-0.6c2.9-0.7,5.7-0.2,8.4,1.1
		c1.7,0.8,3.1,1.9,4.4,3.2C102.5,29,102.6,29,102.7,29.1L102.7,29.1z"/>
	<path id="XMLID_111_" class="st0" d="M52,68.9c-2.8,0-5.4-0.6-7.9-1.7c-1.3-0.6-2.6-1.3-3.7-2.1v3l-4.1-4.4
		c-0.1-0.1-0.2-0.3-0.4-0.4c-0.3-0.3-0.7-0.7-1-1.1c-1.6-2.1-2.8-4.6-3.6-7.7c-0.6-2.5-0.9-5.1-0.7-7.8c0-0.2,0-0.4,0.1-0.6
		l-4.2,3.4l2.8-7.8c1.5-4.2,4-8.1,8-12.2l1.5-1.5l1.7,1.3c1,0.7,1.4,1.8,1.3,3c0,0.1,0,0.2,0,0.3c1.3-0.9,2.9-1.8,4.8-2.6l7.4-2.9
		l-4,5.7c0.1,0,0.2,0,0.3,0c0.9,0,1.7,0.2,2.5,0.5l3.2,1.2L53.7,37l-0.6,0.6c-0.4,0.4-0.7,0.8-1.1,1.2c-1.7,2-2.7,4.1-3.1,6.3
		c-0.5,2.6-0.1,4.6,1.2,6.4c1.1,1.5,2.4,2.2,4.3,2.2h0.1c1,0,2-0.4,3.2-1.2c2.1-1.4,3.8-3.2,5.2-5.7l1.6-2.8l3.1,2.5
		c0.6,0.5,1.3,1,1.9,1.6c0.5,0.4,1,0.8,1.4,1.2c0.5,0.4,1,0.8,1.5,1.2c1.1,0.9,1.4,2.3,0.7,3.5c-1.7,3.4-3.6,6.1-5.7,8.3
		c-3.2,3.2-6.9,5.3-11.1,6.1C54.9,68.7,53.4,68.9,52,68.9z"/>
	<path id="XMLID_202_" class="st1" d="M65.2,47.6c0.9,0.8,1.9,1.5,2.8,2.3c1,0.8,1.9,1.7,2.9,2.5c0.2,0.2,0.3,0.3,0.1,0.6
		c-1.4,2.8-3.1,5.4-5.3,7.7c-2.7,2.8-6,4.7-9.8,5.4c-3.7,0.7-7.3,0.5-10.8-1.1c-2.5-1.1-4.6-2.6-6.3-4.8c-0.3-0.3-0.5-0.7-0.8-1.2
		c0,0.6,0,1,0,1.5s0.1,0.9,0.1,1.5c-0.4-0.5-0.9-0.9-1.3-1.4c-1.6-2-2.6-4.4-3.2-6.9c-0.6-2.3-0.8-4.7-0.6-7
		c0.1-2.2,0.6-4.2,1.5-6.2c0.1-0.1,0.1-0.2,0.2-0.4c-1.2,0.6-2.2,1.4-3.2,2.2c1.5-4.4,4.3-8,7.5-11.3c0.3,0.3,0.4,0.6,0.4,0.9
		c-0.1,0.8-0.2,1.5-0.3,2.3c-0.2,1.1-0.3,2.3-0.4,3.4c0,0.1,0,0.2,0,0.4c1.2-1.4,2.6-2.4,4.1-3.4c1.4-1,2.9-1.9,4.7-2.6
		c-1.1,1.5-1.6,3.2-1.7,5.1c0.9-0.8,1.8-1.5,2.9-1.9c1.1-0.4,2.2-0.4,3.3,0c-0.6,0.7-1.2,1.3-1.7,1.9c-1.8,2.2-3.1,4.6-3.6,7.4
		c-0.5,2.9-0.2,5.7,1.6,8.2c1.6,2.2,3.7,3.2,6.4,3.2c1.6,0,3.1-0.7,4.4-1.5c2.5-1.7,4.4-3.9,6-6.4C65,47.8,65.1,47.7,65.2,47.6z"/>
	<path id="XMLID_89_" class="st0" d="M87.7,70c-1.7,0-3.3-0.3-4.7-0.9l-5.1-0.8c-0.1,0-0.4,0-0.8-0.2c-3.6-1.4-5.7-4.1-6.1-7.7
		c-0.1-0.8-0.1-1.5,0-2.1c0-0.3,0-0.6,0-0.9v-0.7c0-0.7,0-1.3-0.1-1.9c-0.1-0.4-0.2-1-1.3-1.8c-2.1-1.7-4.2-3.5-6.3-5.2
		c-1.8-1.5-2.9-3.2-3.2-5.2v-0.1c0-0.3-0.1-0.7-0.1-1.1c0-0.3,0-0.7-0.6-1.1s-1.1-0.8-1.6-1.3c-2-1.7-2.6-4.6-1.4-6.8l3.4-6.4
		l1.1,7.2c0.1,0.4,0.1,0.6,0.8,0.7l1.4,0.1c2.6,0.3,4.1,1.7,4.6,4.3c0,0.1,0,0.1,0,0.2l0,0c0.6,0,1.1,0.1,1.7,0.1
		c1.7,0.2,2.9,1.1,3.9,1.9c1.6,1.3,3.1,2.6,4.7,3.9l2.8,2.3c0.6,0.5,1,0.6,1.2,0.6l0,0c0.4,0,0.6-0.2,0.7-0.3c0.1-0.1,0.3-0.5,0.2-1
		l-1.4-5.6l4.8,2.6c1,0.6,1.5,0.9,1.5,0.9l2.1-0.3c0.4,0,0.7,0,1.1,0c1.6,0,3.1,0.3,4.5,0.8c3.3,1.3,5.5,3.5,6.6,6.6
		c1.1,3,1,4.7-0.3,8.2l-0.3,0.5L98.4,65c-0.6,1-1.3,1.7-1.9,2.1c-2.4,1.8-5.2,2.8-8.3,2.9C88.1,70,87.9,70,87.7,70z M90.2,48.4
		c0.1,0.4,0.1,0.8,0.2,1.2c0.1,0.7,0,1.4,0,2.1c0.6-0.4,1-0.9,1-1.5s-0.3-1.2-0.9-1.6C90.4,48.5,90.3,48.5,90.2,48.4z"/>
	<path id="XMLID_201_" class="st1" d="M58.5,33.3c0.2,1.6,1.3,2.5,2.9,2.7c0.5,0,0.9,0.1,1.4,0.1c1.6,0.2,2.2,0.8,2.5,2.3
		c0.1,0.3,0.1,0.7,0.2,1c0.2,0.8,0.6,1.1,1.4,1.2c0.7,0.1,1.4,0.1,2.2,0.2c1.1,0.1,1.9,0.7,2.7,1.4c2.5,2.1,5,4.1,7.5,6.2
		c0.8,0.6,1.6,1.1,2.7,1.1c2.2,0.1,3.8-2,3.3-4.3c0-0.1-0.1-0.2-0.1-0.4c3,1.6,4,7.3,1,9.7c0.2,0,0.4,0.1,0.6,0.1
		c1.7,0.1,3.3-0.1,4.7-1c2.7-1.6,2.9-5,0.4-7c-0.3-0.2-0.6-0.4-0.9-0.6s-0.6-0.3-1-0.4c1.6-0.1,3.1,0.1,4.5,0.6
		c2.5,1,4.3,2.6,5.3,5.2c1.1,3.1,0.1,6.5-2.4,8.6c-2.3,1.9-4.9,2.6-7.9,2.3c0.3,0.5,1.8,1.2,3.2,1.5c1.2,0.3,2.4,0.4,3.6-0.1
		c-0.3,0.6-0.7,1-1.2,1.3c-2.1,1.5-4.4,2.3-7,2.4c-2.9,0.1-5.4-0.8-7.3-3c-1.4-1.6-2.2-3.4-2.4-5.5c0-0.1,0-0.1,0-0.2
		c-1.5,1.3-2.1,4.7-0.1,7c-0.1,0-0.2,0-0.3,0c-2.6-1.1-4.3-2.9-4.6-5.8c-0.1-0.9,0-1.8,0-2.8c0-0.9,0-1.9-0.1-2.8
		c-0.2-1.4-1-2.5-2.1-3.4c-2.1-1.7-4.2-3.4-6.3-5.2c-1.2-1-2.1-2.1-2.3-3.7c0-0.3-0.1-0.6-0.1-0.9c0-1.3-0.6-2.3-1.6-3.1
		c-0.5-0.4-1-0.7-1.4-1.1C58.2,36.2,57.9,34.5,58.5,33.3z"/>
	<path id="XMLID_104_" class="st0" d="M53.7,45.6c-0.3,0-0.5,0-0.8-0.1l-6-0.9l0.6-0.4l-0.9,0.1l4.4-4.8l0.3-0.3
		c0.1-0.1,0.2-0.2,0.3-0.3c0.6-0.7,0.6-1.2,0.5-1.6c-0.1-0.6-0.9-0.8-1.2-0.9c-0.3,0-0.5-0.1-0.7-0.1c-0.6,0-1.1,0.2-1.7,0.5
		L43,40.1l1.8-5.3c-1.1,0.7-2.1,1.4-3.2,2.4L36,41.9l1.7-7.1c0.1-0.2,0.1-0.4,0.2-0.6c0.1-0.4,0.2-0.7,0.2-1c0-0.2,0.1-0.8,0-1.2
		c0-0.1-0.2-0.2-0.5-0.2c-0.2,0-0.4,0-0.6,0c-0.6,0-1.3,0.1-1.9,0.2c-0.1,0-0.2,0-0.3,0.1h-0.1h-0.3L34,32l-5.8-0.6l4.6-3.6
		c0.2-0.1,0.3-0.2,0.4-0.4c0.4-0.3,0.8-0.6,1.3-0.9c0.9-0.5,1.8-1,2.6-1.5c0.5-0.3,1-0.6,1.5-0.9c0,0,0.5-0.3,0.7-0.4
		c-0.3-0.4-0.8-0.8-1.4-1.2l-6.7-4.3l7.6-0.3c0.4,0,0.7,0,1.1,0c0.4,0,0.7,0,1,0c0-0.9,0.1-1.9,0.3-2.9l1.5-6.1l3.1,6
		c0.4,0.7,1,1.4,1.9,2c0-0.4,0-0.8,0.1-1.2c0.1-1.5,0.4-2.9,0.9-4c0.2-0.5,0.5-1,0.9-1.5l3.8-4l1.1,1.2l2.1-1.1l1.1,5.7
		c0,0.2,0.1,0.5,0.1,0.7c0.1,0.4,0.1,0.8,0.2,1.1c0.3,1,0.9,2,1.8,2.9c1.1,1.1,2.2,2.2,3.3,3.3l1,0.9c1.3,1.2,2.7,2.8,3.7,4.8
		c0.4,0.9,0.7,1.7,0.9,2.6l2.4-4.1l1.2,6.1c0.8,3.9-1.6,8.9-4.9,10.4L64,42.3v-3.8c0-0.2,0-0.3,0-0.5c0-0.3,0-0.5,0-0.7l0,0
		c-0.4-0.2-0.8-0.3-1.4-0.3l-1.2,3.3C60.6,43.3,56.5,45.6,53.7,45.6z M59.9,37.3l0.9-0.1L59.9,37.3C59.9,37.2,59.9,37.3,59.9,37.3z"
		/>
	<path id="XMLID_198_" class="st1" d="M59.4,39.7c-0.6,1.8-4.1,3.7-6.1,3.4c0.9-0.6,1.7-1.4,2.1-2.4c-0.9,0.1-1.7,0.2-2.6,0.3
		c0.3-0.3,0.6-0.6,0.8-0.8c0.8-1.1,1.2-2.2,0.9-3.6c-0.3-1.4-1.5-2.5-3.1-2.7c-1.4-0.2-2.7-0.1-4.1,0.7c0.4-1.1,1-2,1.7-2.7
		c0.7-0.8,1.6-1.4,2.6-1.9v-0.1c-1-0.3-2.1-0.5-3.2-0.8c1.9-1.2,4-1.7,6.2-1.9c-2-1-8,0.8-9.4,2.8c1,0.2,2,0.4,3.1,0.6
		c-3.2,0.9-5.9,2.6-8.3,4.8c0.2-0.6,0.4-1.3,0.4-1.9c0.1-0.6,0.1-1.3,0-1.9c-0.2-1.2-1.2-2-2.6-2.1c-1.1-0.1-2.1,0-3.1,0.2
		c-0.1,0-0.2,0-0.2,0s-0.1,0-0.2,0c0.5-0.4,1-0.8,1.5-1.1c1.4-0.8,2.7-1.6,4.1-2.4c0.6-0.3,1.1-0.6,1.6-1c0.8-0.6,0.9-1,0.4-1.9
		c-0.6-1.1-1.6-2-2.6-2.7c-0.1-0.1-0.2-0.1-0.3-0.2c1.8-0.1,3.6,0,5.3,0.5c-0.9-1.6-1.1-3.3-0.7-5.2c0.1,0.2,0.2,0.3,0.2,0.5
		c0.7,1.4,1.9,2.5,3.2,3.3c1.1,0.7,2.1,1.3,3.2,1.9c2.1,1.2,2.5,1.6,4,3.3c-0.2-0.4-0.3-0.8-0.5-1.1c-0.7-1.3-1.7-2.2-2.9-3
		c-0.2-0.1-0.3-0.3-0.4-0.5C50,18.7,50,17.4,50.1,16c0.1-1.1,0.3-2.3,0.8-3.3c0.1-0.3,0.3-0.6,0.6-0.9c0,0.3,0,0.6,0,0.8
		c0.1,1.7,0.9,3.2,1.9,4.5c1.1,1.5,2.5,2.7,3.8,3.9c1.5,1.4,3.1,2.7,4.4,4.2c0.3,0.4,0.6,0.8,0.9,1.2c-0.1-0.3-0.2-0.6-0.4-0.8
		c-0.9-1.7-2.3-3.1-3.7-4.4c-1-1-2.1-1.9-3.1-2.9c-0.5-0.4-0.7-1-0.7-1.6c-0.1-1.3,0-2.7,0.6-3.9c0.1-0.2,0.2-0.3,0.2-0.5
		c0.1,0.7,0.2,1.4,0.4,2.1c0.4,1.5,1.3,2.8,2.3,4c1.4,1.5,2.9,2.9,4.4,4.3c1.3,1.2,2.5,2.5,3.2,4.1c0.6,1.2,0.9,2.4,0.7,3.8
		c0,0.1,0.1,0.2,0.2,0.3c0.9,0.5,1.2,0.8,1.3,1.9c1-0.3,1.7-1.1,2.2-1.9c0.5,2.7-1.2,6.7-3.6,7.8c0-0.5,0-1,0-1.4
		c-0.1-0.9-0.5-1.5-1.3-1.9c-0.7-0.4-1.5-0.5-2.4-0.6c-0.5,0-1.1,0-1.7,0c0.2-0.3,0.3-0.5,0.4-0.8c0.1-0.4,0.3-0.7,0.4-1.1
		c0.1-0.6-0.1-1-0.7-1.1c-0.8-0.1-1.6-0.3-2.4-0.2c-1.7,0-3.3,0.2-4.9,0.7c-0.2,0-0.3,0.1-0.5,0.2c1.1,0,2.2,0.1,3.2,0.4
		c-0.3,0.9-0.5,1.7-0.8,2.5c-0.1,0.3-0.1,0.6,0,0.9c0.1,0.6,0.6,0.8,1.1,0.5c0.2-0.1,0.4-0.3,0.6-0.5c-0.1,0.5-0.2,1.1-0.3,1.6
		c0,0.3-0.1,0.6-0.1,0.9c0,0.7,0.3,1,1,1.1C58.6,39.8,59,39.7,59.4,39.7z M62.1,30c-0.3-1.2-1.9-3-3.1-3.2
		C59.5,28.9,60.6,30.1,62.1,30z"/>
	<path id="XMLID_241_" class="st0" d="M57.5,25.4c0,0,3.4,1.1,4.7,4.7C60.8,30.5,58.2,28.9,57.5,25.4z"/>
</g>
</svg>
