<?xml version="1.0" encoding="utf-8"?>
<!-- Generator: Adobe Illustrator 19.0.0, SVG Export Plug-In . SVG Version: 6.00 Build 0)  -->
<svg version="1.1" id="Layer_1" xmlns="http://www.w3.org/2000/svg" xmlns:xlink="http://www.w3.org/1999/xlink" x="0px" y="0px"
	 viewBox="0 0 120 120" style="enable-background:new 0 0 120 120;" xml:space="preserve">
<style type="text/css">
	.st0{fill:#A00000;}
	.st1{fill:#FF0000;}
</style>
<path id="XMLID_55_" class="st0" d="M-168.3,119c-32.5,0-59-26.5-59-59c0-32.5,26.5-59,59-59c32.5,0,59,26.5,59,59
	C-109.3,92.5-135.8,119-168.3,119z M-168.3,10c-27.6,0-50,22.4-50,50s22.4,50,50,50s50-22.4,50-50S-140.8,10-168.3,10z"/>
<path id="XMLID_1_" class="st1" d="M-168.3,7c29.2,0,53,23.8,53,53s-23.8,53-53,53s-53-23.8-53-53S-197.6,7-168.3,7 M-168.3,0
	c-33.1,0-60,26.9-60,60s26.9,60,60,60s60-26.9,60-60S-135.2,0-168.3,0L-168.3,0z"/>
<path id="XMLID_393_" class="st1" d="M-203.8,68c0.2,0.4,0.5,1.1,0.9,1.5c3.1,3.5,6.2,6.9,9.3,10.4c4.5,4.9,9,9.9,13.5,14.8
	c0.8,0.8,1.5,1.1,2.7,0.8c5.3-1.3,10.5-2.4,15.8-3.7c5.6-1.3,11.1-2.7,16.6-4c1.3-0.3,2-1,2.4-2.4c1.3-4.5,2.7-9,4.1-13.5
	c1.7-5.7,3.4-11.5,5.2-17.2c0.7-2.2,0.5-4-1.2-5.8c-3-3.1-5.8-6.4-8.7-9.5c-4.4-4.8-8.8-9.7-13.3-14.4c-0.5-0.5-1.5-0.9-2.1-0.8
	c-10.7,2.4-21.4,4.9-32.1,7.4c-1.9,0.4-2.9,1.4-3.5,3.3c-3,10.1-6.1,20.1-9.1,30.1C-203.5,66-203.6,66.9-203.8,68z"/>
<path id="XMLID_381_" class="st0" d="M-203.8,68c0.2-1.1,0.4-2,0.6-2.8c3-10,6.1-20.1,9.1-30.1c0.6-1.9,1.6-2.9,3.5-3.3
	c10.7-2.4,21.4-5,32.1-7.4c0.6-0.1,1.6,0.3,2.1,0.8c4.5,4.8,8.9,9.6,13.3,14.4c2.9,3.2,5.7,6.5,8.7,9.5c1.7,1.8,2,3.5,1.2,5.8
	c-1.8,5.7-3.5,11.5-5.2,17.2c-1.4,4.5-2.8,9-4.1,13.5c-0.4,1.3-1.1,2.1-2.4,2.4c-5.6,1.3-11.1,2.7-16.6,4
	c-5.3,1.2-10.6,2.4-15.8,3.7c-1.2,0.3-1.9,0-2.7-0.8c-4.5-4.9-9-9.9-13.5-14.8c-3.1-3.4-6.2-6.9-9.3-10.4
	C-203.4,69.1-203.6,68.4-203.8,68z M-156.8,72.1c0-0.2-0.1-0.6-0.1-0.9c-1.8-8.5-3.7-16.9-5.5-25.4c-0.4-1.9-1.5-2.2-3-0.7
	c-6.1,5.9-12.2,11.8-18.3,17.6c-1.7,1.6-1.5,2.6,0.9,3.3c6,1.9,11.9,3.7,17.9,5.6c2,0.6,4,1.3,6.1,1.9
	C-157.5,73.9-156.8,73.5-156.8,72.1z M-190,38.7c0.6,6.8,1.3,13.8,2,20.7c0.1,0.6,0.4,1.5,0.7,1.5c0.5,0.1,1.3-0.3,1.7-0.7
	c6-5.7,12-11.5,18-17.3c0.4-0.4,0.9-1.2,0.7-1.7c-0.1-0.5-1-0.9-1.6-1c-6.3-1.4-12.7-2.7-19-4C-189.2,35.9-190.1,36.7-190,38.7z
	 M-137.4,53.2c-0.6-0.6-1-1.3-1.6-1.6c-6.1-2.7-12.2-5.3-18.4-8c-0.5-0.2-1.3-0.3-1.6,0c-0.3,0.4-0.5,1.1-0.4,1.7
	c1.8,8.3,3.6,16.5,5.4,24.8c0.1,0.6,0.6,1.4,1,1.5c0.4,0.1,1.2-0.5,1.6-0.9c4.3-5.2,8.6-10.5,12.9-15.7
	C-138.1,54.5-137.8,53.9-137.4,53.2z M-177.2,90.8c0.8-0.3,1.2-0.5,1.6-0.7c5.2-3.7,10.4-7.4,15.6-11.2c0.4-0.3,1-1,0.9-1.5
	c-0.1-0.4-0.8-0.9-1.3-1.1c-2.1-0.7-4.2-1.3-6.4-2c-5.6-1.7-11.1-3.5-16.7-5.2c-0.6-0.2-1.3-0.1-1.9,0.1c-0.2,0.1-0.3,1-0.1,1.4
	c2.2,6.2,4.5,12.3,6.8,18.5C-178.5,89.9-177.7,90.3-177.2,90.8z M-141.7,46.9c0.1-0.1,0.2-0.2,0.2-0.3c-0.1-0.2-0.1-0.5-0.3-0.6
	c-4.6-5.1-9.1-10.1-13.7-15.2c-0.9-1-2-0.7-2.5,0.6c-0.5,1.5-0.9,2.9-1.4,4.4c-0.7,2.3-0.2,3.5,2.1,4.5c4.6,2,9.3,4.1,14,6.1
	C-142.7,46.6-142.2,46.7-141.7,46.9z M-182.9,33.4c0,0.1,0,0.3,0,0.4c0.5,0.2,1.1,0.4,1.6,0.5c5.1,1,10.1,2.1,15.2,3.1
	c1.9,0.4,3.1-0.4,3.8-2.2c0.4-1.4,0.9-2.8,1.3-4.2c0.6-2.1,0-2.9-2.2-2.4c-6.1,1.4-12.2,2.8-18.3,4.3
	C-182.1,33-182.5,33.2-182.9,33.4z M-192.9,43.3c-0.4,0.6-0.6,0.9-0.7,1.2c-1.9,6.3-3.9,12.7-5.7,19c-0.4,1.4,0.3,2.2,1.7,2.1
	c1.3-0.1,2.6-0.4,3.9-0.6c2-0.3,2.9-1.5,2.8-3.5c-0.5-5.5-1-11-1.5-16.5C-192.6,44.5-192.8,44.1-192.9,43.3z M-138.5,60.9
	c-0.1,0-0.2-0.1-0.3-0.1c-0.2,0.1-0.4,0.2-0.6,0.4c-3.7,4.5-7.4,9-11,13.5c-0.9,1.1-0.7,2.6,0.3,3.7c0.9,0.9,1.8,1.8,2.7,2.7
	c1.6,1.6,2.6,1.3,3.3-0.9c1.8-6,3.6-11.9,5.4-17.9C-138.6,61.8-138.6,61.4-138.5,60.9z M-169.7,89.9c0.1,0.2,0.1,0.3,0.2,0.5
	c1.1-0.2,2.2-0.5,3.3-0.7c5.2-1.2,10.4-2.4,15.5-3.6c0.6-0.2,1.5-0.6,1.6-1.1c0.1-0.5-0.4-1.3-0.8-1.8c-0.7-0.8-1.5-1.5-2.3-2.3
	c-1.6-1.5-2.9-1.7-4.8-0.3c-3.9,2.8-7.8,5.6-11.7,8.4C-168.9,89.2-169.3,89.6-169.7,89.9z M-183.8,85.9c0.1-0.6,0.1-0.7,0.1-0.8
	c-1.9-5.1-3.7-10.2-5.6-15.2c-0.5-1.4-2-2.1-3.6-1.9c-1.1,0.2-2.1,0.2-3.1,0.5c-0.7,0.2-1.7,0.5-1.9,1c-0.2,0.5,0.3,1.4,0.8,1.9
	c4,4.4,8,8.8,12,13.3C-184.8,85-184.3,85.3-183.8,85.9z"/>
<path id="XMLID_64_" class="st0" d="M-108-2.3c-32.5,0-59-26.5-59-59c0-32.5,26.5-59,59-59c32.5,0,59,26.5,59,59
	C-49-28.8-75.5-2.3-108-2.3z M-108-111.3c-27.6,0-50,22.4-50,50s22.4,50,50,50s50-22.4,50-50S-80.4-111.3-108-111.3z"/>
<path id="XMLID_53_" class="st0" d="M-111.7-6.6c-2-11.5-5.7-20-11.6-26.8c-3.7-4.3-8.3-7.6-13.6-9.9c-2.7-1.2-3.7-3-3.4-6.2
	c0.7-5.8,1.2-11.7,1.7-17.5c0.3-2.7,0.5-5.4,0.8-8.2l0.6-5.7c0-0.1,0.2-2.6,1.9-2.7c0,0,0,0,0,0c1.4,0,1.9,1.6,2,2.5l1,5.7l0.8,5
	c0.8,4.8,1.6,9.7,2.4,14.5c0,0,0,0,0.1,0.1c0.3-0.3,0.4-0.4,0.4-0.4c1.3-6.6,2.5-13.5,3.5-20.3c0.4-2.5,0.6-5,0.8-7.5l0.1-1.1
	l0.5-4.4c0-0.1,0.3-2.7,2.1-2.8c0,0,0,0,0,0c1.9,0,2.2,2.5,2.3,2.7l0.7,4.4l0.8,6.9c0.7,6.4,1.5,13,2.4,19.5c0,0,0,0,0,0
	c0,0,0.1,0.1,0.3,0.3c0.2-0.2,0.3-0.3,0.3-0.3c1.3-9.9,2.6-20.3,3.7-31l0.7-7.2l0.5-5.1c0-0.1,0.2-2.9,2.2-2.9
	c1.9,0,2.1,2.7,2.1,2.9l0.6,5.1l0.4,4.2c1.1,11.3,2.4,22.9,3.5,33.1l0,0.2c0,0.2,0,0.3,0,0.5c0,0.3,0.1,0.4,0.1,0.4l0,0
	c0,0,0.2,0.1,0.4,0.4c0,0,0,0,0,0c0.8-4.7,1.7-9.8,2.2-14.9c0.4-3.1,0.6-6.4,0.8-9.5c0.1-1.1,0.2-2.1,0.2-3.1l0.4-4
	c0-0.1,0.2-2.7,2.2-2.7c1.5,0,2.1,1.7,2.2,2.6l0.7,4c0,0.1,1.6,11,1.6,11c0.9,6,1.7,12,2.6,18l0,0.2c0,0.1,0.1,0.5,0.1,0.6
	c0.1,0.2,0.3,0.3,0.5,0.5c0,0,0.1-0.1,0.1-0.1c1.2-5.7,2.2-11.3,3.1-16.6c0.1-0.8,0.2-1.5,0.3-2.3l0.8-4c0-0.1,0.3-2.2,2-2.2
	c1.4,0,1.8,1.5,1.9,2.4l0.6,4.1l0,0.3c0.3,3,0.6,6,1,8.9c0.4,3.6,0.8,7.4,1.2,11.1l0.4,4.1c0.2,1.6,0.5,5.1-3.4,6.8
	c-11.5,5-19.3,14.5-23.1,28.2c-0.7,2.5-1.2,5.2-1.8,8.7l-0.5,2.9l-6.6,0L-111.7-6.6z"/>
<path id="XMLID_50_" class="st1" d="M-109-7c-2.1-12-6-20.9-12.3-28.1c-4-4.6-8.9-8.2-14.6-10.6c-1.6-0.7-1.9-1.3-1.7-3.3
	c0.7-5.8,1.2-11.8,1.7-17.5c0.3-2.7,0.5-6.3,0.8-9c0,0,0-0.1,0-0.1c0.3,1.6,0.5,4.1,0.8,5.7c0.8,4.8,1.6,9.8,2.4,14.7
	c0.2,0.9,0.7,1.5,1.3,2.1c0.2,0.2,1.3,1.4,1.3,1.4s1.2-1.1,1.5-1.3c0.8-0.6,1.6-1.4,1.8-2.4c1.3-6.8,2.5-13.7,3.5-20.5
	c0.4-2.6,0.6-5.2,0.8-7.8c0-0.4,0.1-0.7,0.1-1.1c0.1,0.4,0.8,6.9,0.8,6.9c0.7,6.4,1.5,13,2.4,19.5c0.1,1,0.9,1.7,1.6,2.4
	c0.3,0.3,1.5,1.5,1.5,1.5s1.2-1.2,1.5-1.5c0.7-0.7,1.4-1.4,1.6-2.4c1.3-9.9,2.6-20.4,3.8-31.1l0.6-7.3l0.4,4.2
	c1.1,11.1,2.3,22.2,3.5,33.4c0,0.1,0,0.2,0,0.3c0,0.5,0.1,1.2,0.5,1.7c0.5,0.8,2.7,2.4,2.7,2.4s2.5-1.2,2.8-2.9
	c0.7-4.1,1.7-9.6,2.3-15.1c0.4-3.2,0.6-6.5,0.8-9.7c0.1-1,0.1-2,0.2-3c0,0.1,1.4,9.9,1.4,9.9c0.9,6.3,1.8,12.7,2.8,19l0,0.2
	c0.1,0.6,0.2,1.3,0.6,1.9c0.5,0.6,1,1.1,1.5,1.5c0.2,0.2,0.4,0.4,0.6,0.5l0.7,0.7l0.7-0.7c0.2-0.2,0.4-0.4,0.6-0.6
	c0.6-0.5,1.3-1.1,1.4-2c1.1-5.5,2.1-11,3.1-16.7c0.1-0.8,0.2-1.6,0.3-2.4c0,0.1,0,0.2,0,0.2c0.7,6.7,1.3,13.5,1.9,20.2l0.4,4.1
	c0.2,2.2,0,3.2-1.8,4c-12.4,5.4-20.7,15.5-24.7,30.1c-0.7,2.6-1.3,5.4-1.9,9c0,0.2-0.1,0.4-0.1,0.5l-1.9,0
	C-108.9-6.3-108.9-6.7-109-7z"/>
<path id="XMLID_36_" class="st1" d="M-108-114.3c29.2,0,53,23.8,53,53s-23.8,53-53,53s-53-23.8-53-53S-137.2-114.3-108-114.3
	 M-108-121.3c-33.1,0-60,26.9-60,60s26.9,60,60,60s60-26.9,60-60S-74.9-121.3-108-121.3L-108-121.3z"/>
<path id="XMLID_94_" class="st0" d="M60,11c27,0,49,22,49,49c0,27-22,49-49,49S11,87,11,60C11,33,33,11,60,11 M60,0
	C26.9,0,0,26.9,0,60s26.9,60,60,60s60-26.9,60-60S93.1,0,60,0L60,0z"/>
<path id="XMLID_54_" class="st1" d="M60,7c29.2,0,53,23.8,53,53s-23.8,53-53,53S7,89.2,7,60S30.8,7,60,7 M60,0C26.9,0,0,26.9,0,60
	s26.9,60,60,60s60-26.9,60-60S93.1,0,60,0L60,0z"/>
<path id="XMLID_237_" class="st0" d="M57.5,49.5l-2-1.8c-1.3-1.2-2.7-2.5-3.9-4c-0.9-1.1-0.9-2.3-0.3-3.5c1-1.8,1.3-3.5,0.7-5.3
	c-0.5-1.5-1.4-1.8-2.1-1.9c-0.1,0-0.2,0-0.4,0c-0.7,0-1.6,0.2-2.3,1.5c-0.5,0.9-0.6,1.8-0.4,3c0.1,0.4,0.1,1,0,1.6
	c-0.4,1.7-0.5,3.2-0.3,4.7c0,0.2,0,0.4,0,0.6v3.9l-3.4-1.7c-1.2-0.6-2.3-1.3-3.2-2.2l1.4,5.4l-5-3c-3.3-2-3.9-7.3-4-8.8
	c-0.1-1.9-0.2-6.5,2.4-8.7l2.5-2.2c1.2-1.7,2.5-3,4.1-4l5.9-3.8L46,22.4c0.9-0.3,1.8-0.5,2.8-0.5l0.4-0.1h2.5c0,0,0.6,0.1,0.8,0.1
	c0.5,0.1,1.1,0.2,1.7,0.3c5.6,1.3,9.4,5,10.9,10.7c0.9,3.4,0.6,6.9-0.9,10.7c-0.8,2-1.8,3.8-3,5.4c-0.1,0.1-0.1,0.2-0.2,0.3
	l-1.6,1.9L57.5,49.5z"/>
<path id="XMLID_204_" class="st1" d="M51.5,24.2c0.7,0.1,1.4,0.2,2.1,0.4c4.9,1.2,7.9,4.3,9.2,9.1c0.9,3.1,0.4,6.2-0.8,9.1
	c-0.7,1.7-1.6,3.3-2.7,4.8c-0.1,0.1-0.1,0.1-0.2,0.2c-0.6-0.6-1.3-1.2-1.9-1.8c-1.3-1.2-2.6-2.4-3.7-3.8c-0.2-0.3-0.3-0.5-0.1-0.8
	c1.3-2.3,1.7-4.7,0.9-7.2c-0.7-2-2-3.3-4.2-3.5c-2.2-0.2-3.9,0.8-5,2.7c-0.8,1.5-1,3-0.6,4.7c0,0.2,0,0.4,0,0.5
	c-0.5,1.8-0.6,3.7-0.3,5.6c0,0.1,0,0.2,0,0.4c-2.9-1.5-4.8-3.8-5.8-7c-1.1,2.4-1.5,4.7-0.9,7.2c-3.2-2-4.1-11.4-1.3-13.8
	c0.2,0.8,0.3,1.7,0.5,2.5c0,0.1,0.1,0.2,0.2,0.3c0.3-1.9,1-3.5,2-5c1-1.5,2.1-2.8,3.7-3.9c-0.3,0.8-0.5,1.6-0.4,2.6
	c0.9-1.1,1.9-1.8,3.1-2.3c1.3-0.6,2.6-0.9,3.9-1c0.1,0,0.2,0,0.3-0.1C50.1,24.2,50.8,24.2,51.5,24.2z"/>
<path id="XMLID_116_" class="st0" d="M68.6,70.3c-0.7-0.5-1.3-1-1.8-1.5c-0.9-0.8-1.6-1.4-2.5-1.7l-3-1.1l1.9-2.6l0.4-0.5
	c0.3-0.4,0.6-0.7,0.8-1.1c0.2-0.3,0.5-0.6,0.7-0.9l0.8-2.2c1.6-4.5,5.2-8.9,8.6-11c3.4-2.1,8.5-2.3,8.8-2.3l0.1,0
	c4.5,0.2,8.5,2.1,10.7,3.2c1.9,0.9,3.5,2.1,5,3.5c0,0,0.6,0.6,1.2,1.6c0.6,0.9,1.9,4.6,1.9,4.6l-3.2-1.6l-1.6-0.4
	c-0.6-0.1-1.4-0.1-2-0.1c-0.9,0-1.8,0.1-3.1,0.4c-1.2,0.3-2.1,0.6-3,1c-0.2,0.1-0.4,0.2-0.6,0.4l-0.4,0.3L86.9,59l-1.2-0.7l-0.2-0.2
	c-0.1-0.1-0.2-0.1-0.3-0.2c-0.8-0.4-1.5-0.6-2.3-0.6c-0.8,0-1.6,0.2-2.5,0.5c-1,0.4-1.8,1.1-2.8,2.4c-2.1,2.6-3.8,5.5-5.2,8.6
	c-0.1,0.1-0.1,0.2-0.2,0.3l-1.2,2.6L68.6,70.3z"/>
<path id="XMLID_203_" class="st1" d="M97.7,54.1c-2-0.5-4-0.2-6,0.2c-1.2,0.3-2.4,0.6-3.6,1.2c-0.4,0.2-0.8,0.4-1.2,0.7
	c-0.2-0.1-0.5-0.3-0.7-0.4c-2.2-1.1-4.5-1-6.8-0.1c-1.6,0.6-2.8,1.8-3.8,3.1c-2.2,2.8-4.1,5.9-5.5,9.2c-0.1,0.1-0.1,0.3-0.2,0.4
	c-1.6-1.1-2.9-2.7-4.9-3.4c0.4-0.5,0.8-1,1.2-1.5c2.4-3,5.1-5.7,8.4-7.7c2.2-1.4,4.5-2.3,7-2.8c0.4-0.1,0.8-0.1,1.1-0.2
	c-0.6,0-1.2,0-1.7,0c-3.2,0.3-6.1,1.5-8.7,3.2c-1.5,1-2.9,2.1-4,3.5c-0.1,0.1-0.1,0.1-0.2,0.1c1.4-4.2,4.1-7.4,7.7-9.8
	c0,0,0.1,0,0.1,0.1c-0.1,0.2-0.2,0.3-0.3,0.5c-0.3,0.5-0.2,0.5-0.5,1.1c-0.1,0.2-0.1,0.5,0.1,0.6c0.1,0.1,0.5,0.1,0.6,0
	c0.6-0.3,1.1-0.7,1.6-1.1c1.2-1,1.9-1.5,3.3-2.2c0.7-0.3,1.5-0.5,2.3-0.8c0.1,0,0.3,0,0.5,0c-0.5,0.3-0.8,0.5-1.2,0.7
	c-0.4,0.3-0.4,0.4-0.8,0.8c-0.2,0.2-0.3,0.5-0.1,0.8c0.2,0.3,0.5,0.3,0.8,0.2c0.9-0.3,1.5-0.4,2.4-0.6c2.9-0.7,5.7-0.2,8.4,1.1
	c1.7,0.8,3.1,1.9,4.4,3.2C97.5,54,97.6,54,97.7,54.1C97.7,54.1,97.7,54.1,97.7,54.1z"/>
<path id="XMLID_111_" class="st0" d="M47,93.9c-2.8,0-5.4-0.6-7.9-1.7c-1.3-0.6-2.6-1.3-3.7-2.1l0,3l-4.1-4.4
	c-0.1-0.1-0.2-0.3-0.4-0.4c-0.3-0.3-0.7-0.7-1-1.1c-1.6-2.1-2.8-4.6-3.6-7.7c-0.6-2.5-0.9-5.1-0.7-7.8c0-0.2,0-0.4,0.1-0.6l-4.2,3.4
	l2.8-7.8c1.5-4.2,4-8.1,8-12.2l1.5-1.5l1.7,1.3c1,0.7,1.4,1.8,1.3,3c0,0.1,0,0.2,0,0.3c1.3-0.9,2.9-1.8,4.8-2.6l7.4-2.9l-4,5.7
	c0.1,0,0.2,0,0.3,0c0.9,0,1.7,0.2,2.5,0.5l3.2,1.2l-2.3,2.5l-0.6,0.6c-0.4,0.4-0.7,0.8-1.1,1.2c-1.7,2-2.7,4.1-3.1,6.3
	c-0.5,2.6-0.1,4.6,1.2,6.4c1.1,1.5,2.4,2.2,4.3,2.2l0.1,0c1,0,2-0.4,3.2-1.2c2.1-1.4,3.8-3.2,5.2-5.7l1.6-2.8l3.1,2.5
	c0.6,0.5,1.3,1,1.9,1.6c0.5,0.4,1,0.8,1.4,1.2c0.5,0.4,1,0.8,1.5,1.2c1.1,0.9,1.4,2.3,0.7,3.5c-1.7,3.4-3.6,6.1-5.7,8.3
	c-3.2,3.2-6.9,5.3-11.1,6.1C49.9,93.7,48.4,93.9,47,93.9z"/>
<path id="XMLID_202_" class="st1" d="M60.2,72.6c0.9,0.8,1.9,1.5,2.8,2.3c1,0.8,1.9,1.7,2.9,2.5c0.2,0.2,0.3,0.3,0.1,0.6
	c-1.4,2.8-3.1,5.4-5.3,7.7c-2.7,2.8-6,4.7-9.8,5.4c-3.7,0.7-7.3,0.5-10.8-1.1c-2.5-1.1-4.6-2.6-6.3-4.8c-0.3-0.3-0.5-0.7-0.8-1.2
	c0,0.6,0,1,0,1.5c0,0.5,0.1,0.9,0.1,1.5c-0.4-0.5-0.9-0.9-1.3-1.4c-1.6-2-2.6-4.4-3.2-6.9c-0.6-2.3-0.8-4.7-0.6-7
	c0.1-2.2,0.6-4.2,1.5-6.2c0.1-0.1,0.1-0.2,0.2-0.4c-1.2,0.6-2.2,1.4-3.2,2.2c1.5-4.4,4.3-8,7.5-11.3c0.3,0.3,0.4,0.6,0.4,0.9
	c-0.1,0.8-0.2,1.5-0.3,2.3c-0.2,1.1-0.3,2.3-0.4,3.4c0,0.1,0,0.2,0,0.4c1.2-1.4,2.6-2.4,4.1-3.4c1.4-1,2.9-1.9,4.7-2.6
	c-1.1,1.5-1.6,3.2-1.7,5.1c0.9-0.8,1.8-1.5,2.9-1.9c1.1-0.4,2.2-0.4,3.3,0c-0.6,0.7-1.2,1.3-1.7,1.9c-1.8,2.2-3.1,4.6-3.6,7.4
	c-0.5,2.9-0.2,5.7,1.6,8.2c1.6,2.2,3.7,3.2,6.4,3.2c1.6,0,3.1-0.7,4.4-1.5c2.5-1.7,4.4-3.9,6-6.4C60,72.8,60.1,72.7,60.2,72.6z"/>
<path id="XMLID_89_" class="st0" d="M82.7,95c-1.7,0-3.3-0.3-4.7-0.9l-5.1-0.8c-0.1,0-0.4,0-0.8-0.2c-3.6-1.4-5.7-4.1-6.1-7.7
	c-0.1-0.8-0.1-1.5,0-2.1c0-0.3,0-0.6,0-0.9l0-0.7c0-0.7,0-1.3-0.1-1.9c-0.1-0.4-0.2-1-1.3-1.8c-2.1-1.7-4.2-3.5-6.3-5.2
	c-1.8-1.5-2.9-3.2-3.2-5.2l0-0.1c0-0.3-0.1-0.7-0.1-1.1c0-0.3,0-0.7-0.6-1.1c-0.6-0.4-1.1-0.8-1.6-1.3c-2-1.7-2.6-4.6-1.4-6.8
	l3.4-6.4l1.1,7.2c0.1,0.4,0.1,0.6,0.8,0.7l1.4,0.1c2.6,0.3,4.1,1.7,4.6,4.3c0,0.1,0,0.1,0,0.2l0,0c0.6,0,1.1,0.1,1.7,0.1
	c1.7,0.2,2.9,1.1,3.9,1.9c1.6,1.3,3.1,2.6,4.7,3.9l2.8,2.3c0.6,0.5,1,0.6,1.2,0.6c0,0,0,0,0,0c0.4,0,0.6-0.2,0.7-0.3
	c0.1-0.1,0.3-0.5,0.2-1l-1.4-5.6l4.8,2.6c1,0.6,1.5,0.9,1.5,0.9l2.1-0.3c0.4,0,0.7,0,1.1,0c1.6,0,3.1,0.3,4.5,0.8
	c3.3,1.3,5.5,3.5,6.6,6.6c1.1,3,1,4.7-0.3,8.2l-0.3,0.5l-3.1,5.5c-0.6,1-1.3,1.7-1.9,2.1c-2.4,1.8-5.2,2.8-8.3,2.9
	C83.1,95,82.9,95,82.7,95z M85.2,73.4c0.1,0.4,0.1,0.8,0.2,1.2c0.1,0.7,0,1.4,0,2.1c0.6-0.4,1-0.9,1-1.5c0-0.6-0.3-1.2-0.9-1.6
	C85.4,73.5,85.3,73.5,85.2,73.4z"/>
<path id="XMLID_201_" class="st1" d="M53.5,58.3c0.2,1.6,1.3,2.5,2.9,2.7c0.5,0,0.9,0.1,1.4,0.1c1.6,0.2,2.2,0.8,2.5,2.3
	c0.1,0.3,0.1,0.7,0.2,1c0.2,0.8,0.6,1.1,1.4,1.2c0.7,0.1,1.4,0.1,2.2,0.2c1.1,0.1,1.9,0.7,2.7,1.4c2.5,2.1,5,4.1,7.5,6.2
	c0.8,0.6,1.6,1.1,2.7,1.1c2.2,0.1,3.8-2,3.3-4.3c0-0.1-0.1-0.2-0.1-0.4c3,1.6,4,7.3,1,9.7c0.2,0,0.4,0.1,0.6,0.1
	c1.7,0.1,3.3-0.1,4.7-1c2.7-1.6,2.9-5,0.4-7c-0.3-0.2-0.6-0.4-0.9-0.6c-0.3-0.2-0.6-0.3-1-0.4c1.6-0.1,3.1,0.1,4.5,0.6
	c2.5,1,4.3,2.6,5.3,5.2c1.1,3.1,0.1,6.5-2.4,8.6c-2.3,1.9-4.9,2.6-7.9,2.3c0.3,0.5,1.8,1.2,3.2,1.5c1.2,0.3,2.4,0.4,3.6-0.1
	c-0.3,0.6-0.7,1-1.2,1.3c-2.1,1.5-4.4,2.3-7,2.4c-2.9,0.1-5.4-0.8-7.3-3c-1.4-1.6-2.2-3.4-2.4-5.5c0-0.1,0-0.1,0-0.2
	c-1.5,1.3-2.1,4.7-0.1,7c-0.1,0-0.2,0-0.3,0c-2.6-1.1-4.3-2.9-4.6-5.8c-0.1-0.9,0-1.8,0-2.8c0-0.9,0-1.9-0.1-2.8
	c-0.2-1.4-1-2.5-2.1-3.4c-2.1-1.7-4.2-3.4-6.3-5.2c-1.2-1-2.1-2.1-2.3-3.7c0-0.3-0.1-0.6-0.1-0.9c0-1.3-0.6-2.3-1.6-3.1
	c-0.5-0.4-1-0.7-1.4-1.1C53.2,61.2,52.9,59.5,53.5,58.3z"/>
<path id="XMLID_104_" class="st0" d="M48.7,70.6c-0.3,0-0.5,0-0.8-0.1l-6-0.9l0.6-0.4l-0.9,0.1l4.4-4.8l0.3-0.3
	c0.1-0.1,0.2-0.2,0.3-0.3c0.6-0.7,0.6-1.2,0.5-1.6c-0.1-0.6-0.9-0.8-1.2-0.9c-0.3,0-0.5-0.1-0.7-0.1c-0.6,0-1.1,0.2-1.7,0.5L38,65.1
	l1.8-5.3c-1.1,0.7-2.1,1.4-3.2,2.4L31,66.9l1.7-7.1c0.1-0.2,0.1-0.4,0.2-0.6c0.1-0.4,0.2-0.7,0.2-1c0-0.2,0.1-0.8,0-1.2
	c0-0.1-0.2-0.2-0.5-0.2c-0.2,0-0.4,0-0.6,0c-0.6,0-1.3,0.1-1.9,0.2c-0.1,0-0.2,0-0.3,0.1l-0.1,0l-0.3,0L29,57l-5.8-0.6l4.6-3.6
	c0.2-0.1,0.3-0.2,0.4-0.4c0.4-0.3,0.8-0.6,1.3-0.9c0.9-0.5,1.8-1,2.6-1.5c0.5-0.3,1-0.6,1.5-0.9c0,0,0.5-0.3,0.7-0.4
	c-0.3-0.4-0.8-0.8-1.4-1.2l-6.7-4.3l7.6-0.3c0.4,0,0.7,0,1.1,0c0.4,0,0.7,0,1,0c0-0.9,0.1-1.9,0.3-2.9l1.5-6.1l3.1,6
	c0.4,0.7,1,1.4,1.9,2c0-0.4,0-0.8,0.1-1.2c0.1-1.5,0.4-2.9,0.9-4c0.2-0.5,0.5-1,0.9-1.5l3.8-4l1.1,1.2l2.1-1.1l1.1,5.7
	c0,0.2,0.1,0.5,0.1,0.7c0.1,0.4,0.1,0.8,0.2,1.1c0.3,1,0.9,2,1.8,2.9c1.1,1.1,2.2,2.2,3.3,3.3l1,0.9c1.3,1.2,2.7,2.8,3.7,4.8
	c0.4,0.9,0.7,1.7,0.9,2.6l2.4-4.1l1.2,6.1c0.8,3.9-1.6,8.9-4.9,10.4l-3.4,1.6v-3.8c0-0.2,0-0.3,0-0.5c0-0.3,0-0.5,0-0.7c0,0,0,0,0,0
	c-0.4-0.2-0.8-0.3-1.4-0.3l-1.2,3.3C55.6,68.3,51.5,70.6,48.7,70.6z M54.9,62.3l0.9-0.1L54.9,62.3C54.9,62.2,54.9,62.3,54.9,62.3z"
	/>
<path id="XMLID_198_" class="st1" d="M54.4,64.7c-0.6,1.8-4.1,3.7-6.1,3.4c0.9-0.6,1.7-1.4,2.1-2.4c-0.9,0.1-1.7,0.2-2.6,0.3
	c0.3-0.3,0.6-0.6,0.8-0.8c0.8-1.1,1.2-2.2,0.9-3.6c-0.3-1.4-1.5-2.5-3.1-2.7c-1.4-0.2-2.7-0.1-4.1,0.7c0.4-1.1,1-2,1.7-2.7
	c0.7-0.8,1.6-1.4,2.6-1.9c0,0,0-0.1,0-0.1c-1-0.3-2.1-0.5-3.2-0.8c1.9-1.2,4-1.7,6.2-1.9c-2-1-8,0.8-9.4,2.8c1,0.2,2,0.4,3.1,0.6
	c-3.2,0.9-5.9,2.6-8.3,4.8c0.2-0.6,0.4-1.3,0.4-1.9c0.1-0.6,0.1-1.3,0-1.9c-0.2-1.2-1.2-2-2.6-2.1c-1.1-0.1-2.1,0-3.1,0.2
	c-0.1,0-0.2,0-0.2,0c0,0-0.1,0-0.2,0c0.5-0.4,1-0.8,1.5-1.1c1.4-0.8,2.7-1.6,4.1-2.4c0.6-0.3,1.1-0.6,1.6-1c0.8-0.6,0.9-1,0.4-1.9
	c-0.6-1.1-1.6-2-2.6-2.7c-0.1-0.1-0.2-0.1-0.3-0.2c1.8-0.1,3.6,0,5.3,0.5c-0.9-1.6-1.1-3.3-0.7-5.2c0.1,0.2,0.2,0.3,0.2,0.5
	c0.7,1.4,1.9,2.5,3.2,3.3c1.1,0.7,2.1,1.3,3.2,1.9c2.1,1.2,2.5,1.6,4,3.3c-0.2-0.4-0.3-0.8-0.5-1.1c-0.7-1.3-1.7-2.2-2.9-3
	c-0.2-0.1-0.3-0.3-0.4-0.5C45,43.7,45,42.4,45.1,41c0.1-1.1,0.3-2.3,0.8-3.3c0.1-0.3,0.3-0.6,0.6-0.9c0,0.3,0,0.6,0,0.8
	c0.1,1.7,0.9,3.2,1.9,4.5c1.1,1.5,2.5,2.7,3.8,3.9c1.5,1.4,3.1,2.7,4.4,4.2c0.3,0.4,0.6,0.8,0.9,1.2c-0.1-0.3-0.2-0.6-0.4-0.8
	c-0.9-1.7-2.3-3.1-3.7-4.4c-1-1-2.1-1.9-3.1-2.9c-0.5-0.4-0.7-1-0.7-1.6c-0.1-1.3,0-2.7,0.6-3.9c0.1-0.2,0.2-0.3,0.2-0.5
	c0.1,0.7,0.2,1.4,0.4,2.1c0.4,1.5,1.3,2.8,2.3,4c1.4,1.5,2.9,2.9,4.4,4.3c1.3,1.2,2.5,2.5,3.2,4.1c0.6,1.2,0.9,2.4,0.7,3.8
	c0,0.1,0.1,0.2,0.2,0.3c0.9,0.5,1.2,0.8,1.3,1.9c1-0.3,1.7-1.1,2.2-1.9c0.5,2.7-1.2,6.7-3.6,7.8c0-0.5,0-1,0-1.4
	c-0.1-0.9-0.5-1.5-1.3-1.9c-0.7-0.4-1.5-0.5-2.4-0.6c-0.5,0-1.1,0-1.7,0c0.2-0.3,0.3-0.5,0.4-0.8c0.1-0.4,0.3-0.7,0.4-1.1
	c0.1-0.6-0.1-1-0.7-1.1c-0.8-0.1-1.6-0.3-2.4-0.2c-1.7,0-3.3,0.2-4.9,0.7c-0.2,0-0.3,0.1-0.5,0.2c1.1,0,2.2,0.1,3.2,0.4
	c-0.3,0.9-0.5,1.7-0.8,2.5c-0.1,0.3-0.1,0.6,0,0.9c0.1,0.6,0.6,0.8,1.1,0.5c0.2-0.1,0.4-0.3,0.6-0.5c-0.1,0.5-0.2,1.1-0.3,1.6
	c0,0.3-0.1,0.6-0.1,0.9c0,0.7,0.3,1,1,1.1C53.6,64.8,54,64.7,54.4,64.7z M57.1,55c-0.3-1.2-1.9-3-3.1-3.2
	C54.5,53.9,55.6,55.1,57.1,55z"/>
<path id="XMLID_241_" class="st0" d="M52.5,50.4c0,0,3.4,1.1,4.7,4.7C55.8,55.5,53.2,53.9,52.5,50.4z"/>
</svg>
