<?xml version="1.0" encoding="utf-8"?>
<!-- Generator: Adobe Illustrator 19.0.0, SVG Export Plug-In . SVG Version: 6.00 Build 0)  -->
<svg version="1.1" id="Layer_1" xmlns="http://www.w3.org/2000/svg" xmlns:xlink="http://www.w3.org/1999/xlink" x="0px" y="0px"
	 viewBox="0 0 30 61" style="enable-background:new 0 0 30 61;" xml:space="preserve">
<style type="text/css">
	.st0{fill:#FFFFFF;}
</style>
<path id="XMLID_2_" class="st0" d="M19.9,59.2V33.3c0-0.7,0.5-1.2,1.2-1.2h6.6c0.5,0,0.9,0,1-0.7c0.3-3.3,0.7-6.6,1-9.9
	c0-0.2,0-0.2,0-0.5c-0.3,0-0.7,0-1,0c-2.6,0-5.2,0-7.8,0c-0.6,0-1-0.1-0.9-0.9c0-1.7,0-3.4,0-5c-0.1-2.9,0.7-3.6,3.5-3.8
	c1.7-0.2,3.7,0,5.4,0c0.6,0,1-0.5,1-1L30,1c0-0.7-0.2-1-1-1c-3.6,0.2-7.3,0-11.1,0.2C12,0.7,7.8,3.8,6.9,10.4
	c-0.3,2.9-0.2,5.9-0.3,9c0,0.3,0,0.9,0,1.4h-5c-0.9,0-1.6,0.7-1.6,1.6V31c0,0.6,0.5,1,1,1h4.5c0.3,0,0.7,0,1,0c0,0.5,0,0.9,0,1.2
	v25.9c0,1,0.8,1.8,1.8,1.8h9.7C19.1,61,19.9,60.2,19.9,59.2z"/>
</svg>
