<?xml version="1.0" encoding="utf-8"?>
<!-- Generator: Adobe Illustrator 19.0.0, SVG Export Plug-In . SVG Version: 6.00 Build 0)  -->
<svg version="1.1" id="Layer_1" xmlns="http://www.w3.org/2000/svg" xmlns:xlink="http://www.w3.org/1999/xlink" x="0px" y="0px"
	 viewBox="0 0 97.1 96.9" style="enable-background:new 0 0 97.1 96.9;" xml:space="preserve">
<style type="text/css">
	.st0{fill:#FFFFFF;}
</style>
<path id="XMLID_17_" class="st0" d="M45.3,96.9c-1.6-0.2-3.1-0.4-4.7-0.7C20.5,92.2,7.3,80.4,1.7,60.7C-4.4,39,6.2,15.7,26.3,5.4
	c5.8-3,12-4.7,18.5-5.3C64.7-1.5,83.4,9.4,92.1,27c4.3,8.7,5.9,18,4.6,27.6c-2.4,17.2-11.6,29.6-26.9,37.5c-1.3,0.7-2.6,1.2-4.1,1.8
	c0-0.6-0.1-1-0.1-1.4c0-9.9,0-19.7,0-29.6c0-1,0.3-1.3,1.3-1.3c2.5,0.1,5,0,7.5,0c0.6,0,1.1,0,1.1-0.8c0.4-3.7,0.8-7.4,1.2-11.1
	c0-0.1,0-0.3-0.1-0.5c-0.4,0-0.8-0.1-1.2-0.1c-2.9,0-5.8,0-8.7,0c-0.8,0-1.1-0.3-1.1-1.1c0.1-2,0.1-4,0.1-6c0.1-2.7,1-3.5,3.9-3.6
	c2-0.1,4-0.1,6,0c0.8,0,1.1-0.2,1.1-1c0-3.5,0-7,0-10.5c0-0.8-0.3-1.1-1.1-1.1c-4.1,0.1-8.3-0.1-12.3,0.3c-6.6,0.6-11.3,4-12.3,11.5
	c-0.4,3.3-0.2,6.7-0.3,10c0,0.4,0,0.9,0,1.5c-2,0-3.8,0-5.7,0c-1.7,0-1.7,0-1.7,1.7c0,3.2,0,6.4,0,9.7c0,0.9,0.3,1.2,1.2,1.2
	c1.7-0.1,3.3,0,5,0c0.4,0,0.7,0,1.2,0.1c0,0.5,0,1,0,1.4c0,10.8,0,21.6,0,32.4c0,0.4,0,0.9,0,1.3C48.8,96.9,47.1,96.9,45.3,96.9z"/>
</svg>
