<?xml version="1.0" encoding="utf-8"?>
<!-- Generator: Adobe Illustrator 19.0.0, SVG Export Plug-In . SVG Version: 6.00 Build 0)  -->
<svg version="1.1" id="Layer_1" xmlns="http://www.w3.org/2000/svg" xmlns:xlink="http://www.w3.org/1999/xlink" x="0px" y="0px"
	 viewBox="0 0 50 49.9" style="enable-background:new 0 0 50 49.9;" xml:space="preserve">
<style type="text/css">
	.st0{fill:#FFFFFF;}
</style>
<path id="XMLID_77_" class="st0" d="M23.3,49.9c-0.8-0.1-1.6-0.2-2.4-0.4c-10.4-2.1-17.2-8.2-20-18.3C-2.3,20.1,3.2,8.1,13.5,2.8
	c3-1.5,6.2-2.4,9.5-2.7c10.2-0.8,19.9,4.7,24.3,13.8c2.2,4.5,3.1,9.3,2.4,14.2c-1.3,8.8-6,15.2-13.9,19.3c-0.7,0.3-1.4,0.6-2.1,0.9
	c0-0.3-0.1-0.5-0.1-0.7c0-5.1,0-10.2,0-15.2c0-0.5,0.2-0.7,0.7-0.7c1.3,0,2.6,0,3.8,0c0.3,0,0.5,0,0.6-0.4c0.2-1.9,0.4-3.8,0.6-5.7
	c0-0.1,0-0.1,0-0.3c-0.2,0-0.4,0-0.6,0c-1.5,0-3,0-4.5,0c-0.4,0-0.6-0.1-0.5-0.6c0-1,0-2.1,0-3.1c0-1.4,0.5-1.8,2-1.9
	c1-0.1,2.1,0,3.1,0c0.4,0,0.6-0.1,0.6-0.5c0-1.8,0-3.6,0-5.4c0-0.4-0.1-0.6-0.6-0.6c-2.1,0.1-4.2,0-6.4,0.1
	c-3.4,0.3-5.8,2.1-6.3,5.9c-0.2,1.7-0.1,3.4-0.2,5.2c0,0.2,0,0.5,0,0.8c-1,0-2,0-2.9,0c-0.9,0-0.9,0-0.9,0.9c0,1.7,0,3.3,0,5
	c0,0.5,0.1,0.6,0.6,0.6c0.9,0,1.7,0,2.6,0c0.2,0,0.4,0,0.6,0c0,0.3,0,0.5,0,0.7c0,5.6,0,11.1,0,16.7c0,0.2,0,0.5,0,0.7
	C25.1,49.9,24.2,49.9,23.3,49.9z"/>
</svg>
