<?xml version="1.0" encoding="utf-8"?>
<!-- Generator: Adobe Illustrator 19.0.0, SVG Export Plug-In . SVG Version: 6.00 Build 0)  -->
<svg version="1.1" id="Layer_1" xmlns="http://www.w3.org/2000/svg" xmlns:xlink="http://www.w3.org/1999/xlink" x="0px" y="0px"
	 viewBox="0 0 33.5 65" style="enable-background:new 0 0 33.5 65;" xml:space="preserve">
<style type="text/css">
	.st0{fill:#F1F0F0;}
</style>
<path id="XMLID_34_" class="st0" d="M33.5,65v-3.1c0-0.6-0.1-1.2-0.4-1.8c-0.7-1.4-1.9-3.9-2.1-4.4c-0.3-0.6-0.6-1.5-1.3-1.6
	c-0.3,0-0.7-0.1-1-0.2c-0.4-0.1-0.6-0.4-0.6-0.8l0.1-8l-2-6.5c-0.1-0.2-0.3-0.4-0.5-0.3l-0.3,0.1c-0.2,0-0.3,0-0.4-0.2
	c-0.5-2-3.3-13-3.7-14.2c-0.4-1.3,0.6-1.6,0.6-1.6s2.4-1,5.5-1.9s0.6-2.9-0.2-3.3c-0.5-0.2-2-1.1-3.2-1.8c0,0-0.6-0.2-0.6-0.5
	s0.4-0.5,0.4-0.5c1.4-1.8,2.1-4.1,1.8-6.5c-0.5-4-3.8-7.3-7.8-7.8c-5.4-0.6-9.9,3.6-9.9,8.8c0,2.1,0.7,4,1.9,5.5
	c0,0,0.4,0.3,0.4,0.5c0,0.2-0.6,0.5-0.6,0.5c-1.2,0.7-2.7,1.6-3.2,1.8c-0.8,0.4-3.3,2.3-0.2,3.3s5.5,1.9,5.5,1.9s1,0.3,0.6,1.6
	C12,25.2,9.2,36.2,8.7,38.2c0,0.2-0.2,0.3-0.4,0.2L8,38.3c-0.2-0.1-0.5,0.1-0.5,0.3l-2,6.5l0.1,8c0,0.4-0.3,0.7-0.6,0.8
	c-0.3,0.1-0.7,0.1-1,0.2c-0.7,0.1-1,1-1.3,1.6c-0.2,0.4-1.5,3-2.1,4.4C0.1,60.7,0,61.3,0,61.9V65H33.5z"/>
</svg>
