<?xml version="1.0" encoding="utf-8"?>
<!-- Generator: Adobe Illustrator 19.0.0, SVG Export Plug-In . SVG Version: 6.00 Build 0)  -->
<svg version="1.1" id="Layer_1" xmlns="http://www.w3.org/2000/svg" xmlns:xlink="http://www.w3.org/1999/xlink" x="0px" y="0px"
	 viewBox="0 0 110 151.9" style="enable-background:new 0 0 110 151.9;" xml:space="preserve">
<style type="text/css">
	.st0{fill:#FFFFFF;}
</style>
<g>
	<path id="XMLID_55_" class="st0" d="M33.7,130.3c-2.5,0-3.1,2.4-3.1,5.2c0,2.8,0.9,5.2,3.1,5.2c2.2,0,3.1-2.3,3.1-5.2
		C36.8,133.5,36.2,130.3,33.7,130.3z"/>
	<path id="XMLID_54_" class="st0" d="M13.9,116.7h-1.4v1.5h1.4C14.8,118.2,14.8,116.7,13.9,116.7z"/>
	<path id="XMLID_53_" class="st0" d="M13.9,120.6h-1.4v1.9h1.4c0.8,0,1.2-0.4,1.2-0.9C15.1,121,14.7,120.6,13.9,120.6z"/>
	<path id="XMLID_52_" class="st0" d="M60.1,116.7c-1.4,0-1.8,1.2-1.8,2.8c0,1.6,0.5,2.9,1.8,2.9c1.3,0,1.8-1.2,1.8-2.9
		C61.9,118.4,61.6,116.7,60.1,116.7z"/>
	<path id="XMLID_51_" class="st0" d="M97.1,116.7h-1.4v1.9h1.4c0.6,0,0.9-0.5,0.9-0.9C98,117.2,97.7,116.7,97.1,116.7z"/>
	<path class="st0" d="M108.3,0H1.7C0.7,0,0,0.7,0,1.7v148.6c0,0.9,0.7,1.7,1.7,1.7h106.7c0.9,0,1.7-0.7,1.7-1.7V1.7
		C110,0.7,109.3,0,108.3,0z M70,7.4h9L66.7,32.5c-1.2-0.3-2.5-0.6-3.7-0.8L70,7.4z M77,120.5v4.3h-2.8v-10.4H77v3.6h2.8v-3.6h2.8
		v10.4h-2.8v-4.3H77z M70.2,109.8L64.1,89c1.6-0.3,3.3-0.6,4.9-1l10.4,21.7H70.2z M58.3,60.9c1.6,0,11.1,5.6,8.7,14.4
		c-0.6,2.1-1.9,2.6-2.5,2.3c-0.6-0.3-0.7-1.1-0.5-1.8C67,68.1,59.9,61.8,58.3,60.9z M54.6,61.9c-0.8,1.4-10.4,6.8-16.8,0.3
		c-1.6-1.6-1.3-2.9-0.7-3.3c0.6-0.4,1.3-0.1,1.8,0.5C44,65.9,53,62.8,54.6,61.9z M40.3,49.6c0.7,0,1.2,0.6,1.3,1.3
		c1.2,8.2,10.5,10,12.3,10c-1.4,0.8-12.4,0.7-14.7-8.1C38.7,50.7,39.7,49.6,40.3,49.6z M54.6,58.8C53.2,58,47.8,48.4,54.2,42
		c1.6-1.6,2.9-1.3,3.3-0.7c0.4,0.6,0.1,1.3-0.5,1.8C50.6,48.2,53.6,57.2,54.6,58.8z M55.6,62.5c0,1.6-5.6,11.1-14.4,8.7
		c-2.1-0.6-2.6-1.9-2.3-2.5c0.3-0.6,1.1-0.7,1.8-0.5C48.4,71.2,54.6,64.1,55.6,62.5z M32.4,60.3c0,7.2,3.1,13.7,8.1,18.1
		c-14.9-5-25.3-15.3-25.3-15.3S24.9,50.8,38.8,44C34.8,48.3,32.4,54,32.4,60.3z M40.8,87.4c1.5,0.4,2.9,0.8,4.4,1.1l-5.9,21.2h-8.8
		L40.8,87.4z M37.5,114.4h4.2c2.1,0,3.7,0.9,3.6,2.9c0,0.8-0.5,1.6-1.3,1.9c1.1,0.4,1.8,1.3,1.8,2.4c0,2.3-1.9,3.1-4,3.1h-4.3V114.4
		z M45.4,76.1c0-0.7,0.6-1.2,1.3-1.3c8.2-1.2,10-10.5,10-12.3c0.8,1.4,0.7,12.4-8.1,14.7C46.4,77.7,45.4,76.8,45.4,76.1z M57.7,58.8
		c0.8-1.4,10.4-6.8,16.8-0.3c1.6,1.6,1.3,2.9,0.7,3.3c-0.6,0.4-1.3,0.1-1.8-0.5C68.2,54.8,59.3,57.8,57.7,58.8z M71.9,71.1
		c-0.7,0-1.2-0.6-1.3-1.3c-1.2-8.2-10.5-10-12.3-10c1.4-0.8,12.4-0.7,14.7,8.1C73.5,70,72.6,71.1,71.9,71.1z M73.3,52.1
		c-0.3,0.6-1.1,0.7-1.8,0.5c-7.7-3-13.9,4.1-14.9,5.7c0-1.6,5.6-11.1,14.4-8.7C73.2,50.1,73.6,51.5,73.3,52.1z M46.8,114.4H51
		c3,0,3.8,1,3.8,2.9c0,1.6-0.8,2.5-1.9,2.9c1.2,0.3,2.6,4.6,2.6,4.6h-3.2c0,0-0.8-2.7-2.1-4.2h-0.6v4.2h-2.8V114.4z M51.1,109.8
		l1.3-20.2c1.2,0.1,2.3,0.1,3.5,0.1c0.2,0,0.4,0,0.6,0l1.8,20.1H51.1z M58,78.7c-1.6,1.6-2.9,1.3-3.3,0.7c-0.4-0.6-0.1-1.3,0.5-1.8
		c6.5-5.1,3.5-14.1,2.5-15.7C59.1,62.7,64.5,72.3,58,78.7z M79.8,60.3c0-6.3-2.4-12.1-6.4-16.4C87.3,50.8,97,63.2,97,63.2
		S86.6,73.2,71.9,78.3C76.8,73.9,79.8,67.5,79.8,60.3z M63.7,43.5c2.2-0.6,3.2,0.4,3.2,1c0,0.7-0.6,1.2-1.3,1.3
		c-8.2,1.2-10,10.5-10,12.3C54.7,56.8,54.9,45.8,63.7,43.5z M58.9,7.4L56.1,31c0,0,0,0,0,0c-1,0-2.1,0-3.1,0.1L50.5,7.4H58.9z
		 M47.8,43.1c0.6,0.3,0.7,1.1,0.5,1.8c-3,7.7,4.1,13.9,5.7,14.9c-1.6,0-11.1-5.6-8.7-14.4C45.9,43.3,47.2,42.8,47.8,43.1z M38.5,7.4
		l7.6,25c-1.3,0.3-2.6,0.7-3.9,1.2L29.6,7.4H38.5z M6.9,7.4h6.5L36.1,36c-1.4,0.7-2.7,1.4-4,2.1L6.9,16.7V7.4z M6.9,33l18,9.9
		c-1.9,1.4-3.8,2.9-5.5,4.4L6.9,42.5V33z M6.9,54.2l4.9,0.3c-2,2.1-3.6,4-4.9,5.5V54.2z M6.9,74.9l6.1-2.2c2,1.6,4.2,3.2,6.7,4.8
		L6.9,84.8V74.9z M6.9,100.6l21.3-18.1c1.6,0.8,3.2,1.6,4.9,2.3l-19.9,25H6.9V100.6z M22,114.4v10.4h-2.8v-10.4H22z M18.1,121.7
		c0,2.3-1.9,3.1-4,3.1H9.7v-10.4h4.2c2.8,0,3.7,0.9,3.6,2.9c0,0.8-0.5,1.6-1.3,1.9C17.4,119.6,18.1,120.6,18.1,121.7z M16.9,145
		c-5.2,0-8-3.8-8-9.5s2.7-9.4,8-9.4c4.1,0,6.5,2.1,7.4,6l-4.6,0.8c-0.3-1.7-1.1-2.4-2.8-2.4c-2.5,0-3.1,2.2-3.1,5
		c0,2.9,0.9,5.2,3.1,5.2c1.7,0,2.9-1.5,3.1-3.6l4.4,1.6C23.5,142.4,21,145,16.9,145z M23.3,119.6c0-3.3,1.6-5.5,4.7-5.5
		c2.4,0,3.6,1,4.2,3.2l-2.7,0.5c-0.3-0.9-0.5-1.1-1.5-1.1c-1.4,0-2,1.4-2,3c0,1.6,0.6,3,1.9,3c0.8,0,1.9-0.2,1.9-1.7h-1.9v-2.1
		c2,0,2.3,0,4.3,0c0,0.8,0,3.4,0,4.2c-1.4,1.3-1.9,1.7-4.4,1.7C24.9,124.8,23.3,122.9,23.3,119.6z M33.7,144.9
		c-5.3,0-8.2-3.8-8.2-9.4s2.8-9.4,8.2-9.4c5.4,0,8.2,3.8,8.2,9.4S39,144.9,33.7,144.9z M57.6,144.5l0-13.4l-3.1,13.4h-3.6l-3-13.4
		v13.4h-4.1v-18h6.6l2.4,10.7l2.4-10.7h6.4l0,18H57.6z M60.1,125c-3,0-4.7-2.2-4.7-5.4c0-3.3,1.6-5.4,4.7-5.4c3.1,0,4.7,2.2,4.7,5.4
		C64.8,122.8,63.2,125,60.1,125z M69.2,144.5h-4.8v-17.9h4.8V144.5z M70.5,124.8h-2.8V117H65v-2.6h8.2v2.6h-2.7V124.8z M79.6,145
		c-5.2,0-8-3.8-8-9.5s2.7-9.4,8-9.4c4.1,0,6.5,2.1,7.4,6l-4.6,0.8c-0.3-1.7-1.1-2.4-2.8-2.4c-2.5,0-3.1,2.2-3.1,5
		c0,2.9,0.9,5.2,3.1,5.2c1.7,0,2.9-1.5,3.1-3.6l4.4,1.6C86.2,142.4,83.7,145,79.6,145z M91.3,118.2v2.1h-4.2v2.1h4.5v2.3h-7.3v-10.4
		h7.3v2.3h-4.5v1.5H91.3z M95.4,144.9c-5.6,0-7.5-2.9-7.5-6.4l4.7-0.4c0,1.8,1.4,3.2,2.8,3.2c1.1,0,2.1-0.7,2.1-1.9c0-3.2-9-1.3-9-8
		c0-4.1,2.9-5.3,6.7-5.3c3.9,0,6.4,1.4,6.4,5.4l-4.6,0.2c0-1-0.6-2.3-2.3-2.3c-0.8,0-1.6,0.3-1.6,1.4c0,2.7,9.1,0.7,9.1,7.8
		C102.3,143.1,98.8,144.9,95.4,144.9z M101.6,124.8h-3.2c0,0-0.8-2.7-2.1-4.2h-0.6v4.2h-2.8v-10.4h4.2c3,0,3.8,1,3.8,2.9
		c0,1.6-0.8,2.5-1.9,2.9C100.2,120.5,101.6,124.8,101.6,124.8z M103.4,109.8h-7.6L76.4,85.7c1.7-0.7,3.4-1.4,5.1-2.1l21.9,19.2
		V109.8z M103.4,85.2l-11.9-7.1c2.5-1.6,4.8-3.2,6.9-4.8l5.1,2.3V85.2z M103.4,57.8c-1-1.1-2.1-2.3-3.3-3.5l3.3,0.1V57.8z
		 M103.4,41.8l-12,4.3c-1.7-1.4-3.6-2.9-5.5-4.2l17.5-9.2V41.8z M103.4,15.3L78.2,37.1c-1.3-0.7-2.7-1.4-4.1-2L95.7,7.4h7.7V15.3z"
		/>
	<path id="XMLID_3_" class="st0" d="M42.9,121.5c0-0.5-0.4-0.9-1.2-0.9h-1.3v1.9h1.3C42.5,122.5,42.9,122,42.9,121.5z"/>
	<path id="XMLID_2_" class="st0" d="M41.7,116.7h-1.3v1.5h1.3C42.6,118.2,42.6,116.7,41.7,116.7z"/>
	<path id="XMLID_1_" class="st0" d="M51.9,117.7c0-0.5-0.3-0.9-1-0.9h-1.4v1.9H51C51.6,118.6,51.9,118.2,51.9,117.7z"/>
</g>
</svg>
