<?xml version="1.0" encoding="utf-8"?>
<!-- Generator: Adobe Illustrator 19.0.0, SVG Export Plug-In . SVG Version: 6.00 Build 0)  -->
<svg version="1.1" id="Layer_1" xmlns="http://www.w3.org/2000/svg" xmlns:xlink="http://www.w3.org/1999/xlink" x="0px" y="0px"
	 viewBox="0 0 120 120" style="enable-background:new 0 0 120 120;" xml:space="preserve">
<style type="text/css">
	.st0{fill:#A00000;}
	.st1{fill:#FF0000;}
</style>
<path id="XMLID_55_" class="st0" d="M60,119C27.5,119,1,92.5,1,60C1,27.5,27.5,1,60,1c32.5,0,59,26.5,59,59
	C119,92.5,92.5,119,60,119z M60,10c-27.6,0-50,22.4-50,50s22.4,50,50,50s50-22.4,50-50S87.6,10,60,10z"/>
<path id="XMLID_1_" class="st1" d="M60,7c29.2,0,53,23.8,53,53s-23.8,53-53,53S7,89.2,7,60S30.8,7,60,7 M60,0C26.9,0,0,26.9,0,60
	s26.9,60,60,60s60-26.9,60-60S93.1,0,60,0L60,0z"/>
<path id="XMLID_393_" class="st1" d="M24.5,68c0.2,0.4,0.5,1.1,0.9,1.5c3.1,3.5,6.2,6.9,9.3,10.4c4.5,4.9,9,9.9,13.5,14.8
	c0.8,0.8,1.5,1.1,2.7,0.8c5.3-1.3,10.5-2.4,15.8-3.7c5.6-1.3,11.1-2.7,16.6-4c1.3-0.3,2-1,2.4-2.4c1.3-4.5,2.7-9,4.1-13.5
	c1.7-5.7,3.4-11.5,5.2-17.2c0.7-2.2,0.5-4-1.2-5.8c-3-3.1-5.8-6.4-8.7-9.5c-4.4-4.8-8.8-9.7-13.3-14.4c-0.5-0.5-1.5-0.9-2.1-0.8
	c-10.7,2.4-21.4,4.9-32.1,7.4c-1.9,0.4-2.9,1.4-3.5,3.3c-3,10.1-6.1,20.1-9.1,30.1C24.9,66,24.7,66.9,24.5,68z"/>
<path id="XMLID_381_" class="st0" d="M24.5,68c0.2-1.1,0.4-2,0.6-2.8c3-10,6.1-20.1,9.1-30.1c0.6-1.9,1.6-2.9,3.5-3.3
	c10.7-2.4,21.4-5,32.1-7.4c0.6-0.1,1.6,0.3,2.1,0.8c4.5,4.8,8.9,9.6,13.3,14.4c2.9,3.2,5.7,6.5,8.7,9.5c1.7,1.8,2,3.5,1.2,5.8
	c-1.8,5.7-3.5,11.5-5.2,17.2c-1.4,4.5-2.8,9-4.1,13.5c-0.4,1.3-1.1,2.1-2.4,2.4c-5.6,1.3-11.1,2.7-16.6,4
	c-5.3,1.2-10.6,2.4-15.8,3.7c-1.2,0.3-1.9,0-2.7-0.8c-4.5-4.9-9-9.9-13.5-14.8c-3.1-3.4-6.2-6.9-9.3-10.4C25,69.1,24.7,68.4,24.5,68
	z M71.6,72.1c0-0.2-0.1-0.6-0.1-0.9c-1.8-8.5-3.7-16.9-5.5-25.4c-0.4-1.9-1.5-2.2-3-0.7C56.8,51,50.7,56.9,44.6,62.8
	c-1.7,1.6-1.5,2.6,0.9,3.3c6,1.9,11.9,3.7,17.9,5.6c2,0.6,4,1.3,6.1,1.9C70.8,73.9,71.5,73.5,71.6,72.1z M38.3,38.7
	c0.6,6.8,1.3,13.8,2,20.7c0.1,0.6,0.4,1.5,0.7,1.5c0.5,0.1,1.3-0.3,1.7-0.7c6-5.7,12-11.5,18-17.3c0.4-0.4,0.9-1.2,0.7-1.7
	c-0.1-0.5-1-0.9-1.6-1c-6.3-1.4-12.7-2.7-19-4C39.1,35.9,38.3,36.7,38.3,38.7z M90.9,53.2c-0.6-0.6-1-1.3-1.6-1.6
	c-6.1-2.7-12.2-5.3-18.4-8c-0.5-0.2-1.3-0.3-1.6,0C69,44,68.9,44.8,69,45.3c1.8,8.3,3.6,16.5,5.4,24.8c0.1,0.6,0.6,1.4,1,1.5
	c0.4,0.1,1.2-0.5,1.6-0.9c4.3-5.2,8.6-10.5,12.9-15.7C90.3,54.5,90.5,53.9,90.9,53.2z M51.2,90.8c0.8-0.3,1.2-0.5,1.6-0.7
	c5.2-3.7,10.4-7.4,15.6-11.2c0.4-0.3,1-1,0.9-1.5c-0.1-0.4-0.8-0.9-1.3-1.1c-2.1-0.7-4.2-1.3-6.4-2c-5.6-1.7-11.1-3.5-16.7-5.2
	c-0.6-0.2-1.3-0.1-1.9,0.1c-0.2,0.1-0.3,1-0.1,1.4c2.2,6.2,4.5,12.3,6.8,18.5C49.9,89.9,50.7,90.3,51.2,90.8z M86.7,46.9
	c0.1-0.1,0.2-0.2,0.2-0.3c-0.1-0.2-0.1-0.5-0.3-0.6c-4.6-5.1-9.1-10.1-13.7-15.2c-0.9-1-2-0.7-2.5,0.6c-0.5,1.5-0.9,2.9-1.4,4.4
	c-0.7,2.3-0.2,3.5,2.1,4.5c4.6,2,9.3,4.1,14,6.1C85.6,46.6,86.1,46.7,86.7,46.9z M45.4,33.4c0,0.1,0,0.3,0,0.4
	c0.5,0.2,1.1,0.4,1.6,0.5c5.1,1,10.1,2.1,15.2,3.1c1.9,0.4,3.1-0.4,3.8-2.2c0.4-1.4,0.9-2.8,1.3-4.2c0.6-2.1,0-2.9-2.2-2.4
	c-6.1,1.4-12.2,2.8-18.3,4.3C46.3,33,45.8,33.2,45.4,33.4z M35.4,43.3c-0.4,0.6-0.6,0.9-0.7,1.2c-1.9,6.3-3.9,12.7-5.7,19
	c-0.4,1.4,0.3,2.2,1.7,2.1c1.3-0.1,2.6-0.4,3.9-0.6c2-0.3,2.9-1.5,2.8-3.5c-0.5-5.5-1-11-1.5-16.5C35.7,44.5,35.6,44.1,35.4,43.3z
	 M89.8,60.9c-0.1,0-0.2-0.1-0.3-0.1c-0.2,0.1-0.4,0.2-0.6,0.4c-3.7,4.5-7.4,9-11,13.5c-0.9,1.1-0.7,2.6,0.3,3.7
	c0.9,0.9,1.8,1.8,2.7,2.7c1.6,1.6,2.6,1.3,3.3-0.9c1.8-6,3.6-11.9,5.4-17.9C89.7,61.8,89.8,61.4,89.8,60.9z M58.7,89.9
	c0.1,0.2,0.1,0.3,0.2,0.5c1.1-0.2,2.2-0.5,3.3-0.7c5.2-1.2,10.4-2.4,15.5-3.6c0.6-0.2,1.5-0.6,1.6-1.1c0.1-0.5-0.4-1.3-0.8-1.8
	c-0.7-0.8-1.5-1.5-2.3-2.3c-1.6-1.5-2.9-1.7-4.8-0.3c-3.9,2.8-7.8,5.6-11.7,8.4C59.4,89.2,59,89.6,58.7,89.9z M44.6,85.9
	c0.1-0.6,0.1-0.7,0.1-0.8C42.8,80,41,74.9,39.1,69.8c-0.5-1.4-2-2.1-3.6-1.9c-1.1,0.2-2.1,0.2-3.1,0.5c-0.7,0.2-1.7,0.5-1.9,1
	c-0.2,0.5,0.3,1.4,0.8,1.9c4,4.4,8,8.8,12,13.3C43.6,85,44,85.3,44.6,85.9z"/>
</svg>
