<?xml version="1.0" encoding="utf-8"?>
<!-- Generator: Adobe Illustrator 19.0.0, SVG Export Plug-In . SVG Version: 6.00 Build 0)  -->
<svg version="1.1" id="Layer_1" xmlns="http://www.w3.org/2000/svg" xmlns:xlink="http://www.w3.org/1999/xlink" x="0px" y="0px"
	 viewBox="0 0 50 50" style="enable-background:new 0 0 50 50;" xml:space="preserve">
<style type="text/css">
	.st0{fill:#FFFFFF;}
	.st1{fill:#A00000;}
	.st2{fill:#FF0000;}
</style>
<path id="XMLID_29_" class="st0" d="M25.6,39.7c0,0-0.1,0-0.1,0h-4.6V27.1l-1.3-1.3h-1.8v-3.8c0-1,0.8-1.8,1.8-1.8h1.4
	c0-0.4,0-0.7,0-1.1c0-1,0-2,0.1-2.9l0,0c0.5-3.4,2.7-5.5,6.2-5.8l0,0c0.9,0,1.9,0,2.8,0c0.4,0,0.8,0,1.2,0l1.1,0l0,4.1
	c0,0.8-0.7,1.5-1.5,1.5c-0.3,0-0.6,0-0.9,0c-0.3,0-0.6,0-0.9,0c-0.3,0-0.5,0-0.7,0l0,0l0,0c-0.4,0-0.6,0.1-0.7,0.1
	c0,0.1-0.1,0.2,0,0.6l0,0v2.2l1.4,1.4h3.2L32,21.5l-0.1,0.7c-0.1,0.8-0.2,1.6-0.2,2.4l0,0l0,0c-0.1,0.4-0.3,1.2-1.5,1.2h-2.7v12
	C27.5,38.9,26.6,39.7,25.6,39.7z"/>
<path id="XMLID_36_" class="st1" d="M25.9,1.9C12.6,1.9,1.9,12.6,1.9,25.9S12.6,50,25.9,50S50,39.3,50,25.9S39.3,1.9,25.9,1.9z
	 M32.3,16.5c0,0.2-0.2,0.5-0.5,0.5c-0.8,0-1.8-0.1-2.6,0c-1.3,0.1-1.7,0.4-1.7,1.8c0,0.3,0,0.5,0,0.8h-1.8l1.9,1.9l0,0
	c0.1,0.1,0.2,0.1,0.4,0.1c1.2,0,2.5,0,3.7,0c0.1,0,0.3,0,0.5,0c0,0.1,0,0.1,0,0.2c-0.1,1.6-0.3,3.2-0.5,4.7c0,0.3-0.2,0.3-0.5,0.3
	h-3.2c-0.3,0-0.6,0.2-0.6,0.6V40c0,0.5-0.4,0.9-0.9,0.8h-4.7c-0.5,0-0.9-0.4-0.9-0.9V27.5c0-0.1,0-0.3,0-0.6L19.2,25l-0.1,0.2v1.7
	h-0.7c-0.2,0-0.5-0.2-0.5-0.5v-4.1c0-0.4,0.3-0.8,0.8-0.8h2.4c0-0.2,0-0.5,0-0.7c0-1.5,0-2.9,0.1-4.3c0.4-3.2,2.4-4.7,5.3-4.9
	c1.8-0.1,3.6,0,5.3-0.1c0.4,0,0.5,0.1,0.5,0.5L32.3,16.5z"/>
<path id="XMLID_34_" class="st2" d="M24.1,0C10.7,0,0,10.7,0,24.1s10.7,24.1,24.1,24.1s24.1-10.7,24.1-24.1S37.4,0,24.1,0z
	 M30.4,14.6c0,0.2-0.2,0.5-0.5,0.5c-0.8,0-1.8-0.1-2.6,0c-1.3,0.1-1.7,0.4-1.7,1.8c0,0.8,0,1.6,0,2.4c0,0.4,0.1,0.4,0.4,0.4
	c1.2,0,2.5,0,3.7,0c0.1,0,0.3,0,0.5,0c0,0.1,0,0.1,0,0.2c-0.1,1.6-0.3,3.2-0.5,4.7c0,0.3-0.2,0.3-0.5,0.3h-3.2
	c-0.3,0-0.6,0.2-0.6,0.6v12.4c0,0.5-0.4,0.9-0.9,0.8H20c-0.5,0-0.9-0.4-0.9-0.9V25.6c0-0.1,0-0.3,0-0.6c-0.1,0-0.3,0-0.5,0h-2.2
	c-0.2,0-0.5-0.2-0.5-0.5v-4.1c0-0.4,0.3-0.8,0.8-0.8h2.4c0-0.2,0-0.5,0-0.7c0-1.5,0-2.9,0.1-4.3c0.4-3.2,2.4-4.7,5.3-4.9
	c1.8-0.1,3.6,0,5.3-0.1c0.4,0,0.5,0.1,0.5,0.5L30.4,14.6z"/>
</svg>
