<?xml version="1.0" encoding="utf-8"?>
<!-- Generator: Adobe Illustrator 19.0.0, SVG Export Plug-In . SVG Version: 6.00 Build 0)  -->
<svg version="1.1" id="Layer_1" xmlns="http://www.w3.org/2000/svg" xmlns:xlink="http://www.w3.org/1999/xlink" x="0px" y="0px"
	 viewBox="0 0 50 50" style="enable-background:new 0 0 50 50;" xml:space="preserve">
<style type="text/css">
	.st0{fill:#FFFFFF;}
	.st1{fill:#A00000;}
	.st2{fill:#FF0000;}
</style>
<g id="XMLID_14_">
	<path id="XMLID_51_" class="st0" d="M32.3,38.5c-3.7,0-8.6-2.6-13.5-7.1l0,0l0,0c-4.6-4.9-7.3-9.9-7.3-13.4c0-2,1.5-3.6,2.4-4.4
		c1-0.9,2.6-1.9,3.7-1.9c0.3,0,0.6,0.1,0.9,0.2l0.2,0.1l0.1,0.2c1.2,1.7,3,4.7,3,5.8c0,1-0.5,1.7-0.8,2.3c-0.3,0.5-0.5,0.8-0.5,1.1
		c0.2,0.6,1.8,2.8,3.9,4.6l0,0l0,0c1.7,1.8,3.2,3,3.6,3.2c0.3,0,0.6-0.2,1.1-0.5c0.6-0.4,1.5-0.9,2.6-0.9c1.7,0,5.8,3.3,5.9,3.4
		l0.1,0.1l0.1,0.2c0.2,0.3,0.3,0.5,0.3,0.8c0.1,1.4-0.4,2.8-1.5,4C35.5,37.6,33.8,38.5,32.3,38.5z"/>
	<path id="XMLID_15_" class="st1" d="M25.9,1.9C12.6,1.9,1.9,12.6,1.9,25.9S12.6,50,25.9,50S50,39.3,50,25.9S39.3,1.9,25.9,1.9z
		 M34.2,39.3c-8.3,0-21.7-14.2-21.7-21.4c0-2.7,3.7-5.3,5.1-5.3c1.6,0,5.1,6.1,5.1,7.2c0,1.3-1.3,2.1-1.3,3.5s5.3,7,6.7,7
		c1.3,0,2.1-1.3,3.7-1.3c1.3,0,7.2,4.3,7.2,5.3C39.3,36.9,36.4,39.3,34.2,39.3z"/>
	<path id="XMLID_25_" class="st2" d="M24.1,0C10.7,0,0,10.7,0,24.1s10.7,24.1,24.1,24.1s24.1-10.7,24.1-24.1S37.4,0,24.1,0z
		 M32.3,37.4c-8.3,0-21.7-14.2-21.7-21.4c0-2.7,3.7-5.3,5.1-5.3c1.6,0,5.1,6.1,5.1,7.2c0,1.3-1.3,2.1-1.3,3.5c0,1.3,5.3,7,6.7,7
		c1.3,0,2.1-1.3,3.7-1.3c1.3,0,7.2,4.3,7.2,5.3C37.4,35,34.5,37.4,32.3,37.4z"/>
</g>
</svg>
