<?xml version="1.0" encoding="utf-8"?>
<!-- Generator: Adobe Illustrator 19.0.0, SVG Export Plug-In . SVG Version: 6.00 Build 0)  -->
<svg version="1.1" id="Layer_1" xmlns="http://www.w3.org/2000/svg" xmlns:xlink="http://www.w3.org/1999/xlink" x="0px" y="0px"
	 viewBox="0 0 50 50" style="enable-background:new 0 0 50 50;" xml:space="preserve">
<style type="text/css">
	.st0{fill:#FFFFFF;}
	.st1{fill:#A00000;}
	.st2{fill:#FF0000;}
</style>
<path id="XMLID_55_" class="st0" d="M24.2,30.9c-1.1,0-2.2-0.3-3.1-0.9c-1.7-1.2-3.4-2.3-5-3.5c-0.8-0.6-1.6-1.1-2.4-1.7l-0.2-0.1
	c-0.7-0.5-1.5-1-2.2-1.5l-0.5-0.3l0-0.6c0-0.6,0-1.3,0-1.9c0-0.4,0.1-0.7,0.4-0.9c0.2-0.2,0.6-0.4,1-0.4c3,0,6,0,9,0l14.1,0l4,0
	l0,1.1c0,0.2,0,0.5,0,0.7c0,0.4-0.3,0.9-0.6,1.2c-3.4,2.3-7.4,5.1-11.5,8C26.3,30.6,25.3,30.9,24.2,30.9
	C24.2,30.9,24.2,30.9,24.2,30.9z"/>
<path id="XMLID_54_" class="st0" d="M10.8,32.3V17.7l2,1.4c0.2,0.2,0.5,0.3,0.7,0.5l2.3,1.6c2.1,1.4,4.2,2.9,6.2,4.3
	c0.9,0.6,1.9,0.9,3.1,0.9c1.5,0,3.1-0.5,4.5-1.5c1.9-1.3,7.9-5.5,7.9-5.5l1.6-1.1v13.9H10.8z"/>
<g id="XMLID_19_">
	<path id="XMLID_46_" class="st1" d="M25.9,1.9C12.5,1.9,1.8,12.6,1.8,25.9S12.5,50,25.9,50s24.1-10.7,24.1-24.1S39.2,1.9,25.9,1.9z
		 M39.9,36H11.8V22.6c0.4,0.3,0.7,0.5,1.1,0.7c2.9,2,5.7,4,8.6,6c2.6,1.8,6.2,1.2,8.7-0.5c3.1-2.2,6.3-4.3,9.4-6.5
		c0.1-0.1,0.2-0.1,0.3-0.2V36z M39.9,18.5c0,0.1-0.1,0.3-0.2,0.3c-3.8,2.7-7.7,5.3-11.5,8c-1.3,0.9-3.5,0.9-4.8,0
		c-2.5-1.7-5-3.4-7.5-5.2c-1.3-0.9-2.6-1.8-3.9-2.7c-0.2-0.1-0.3-0.3-0.2-0.5c0-0.7,0-1.5,0-2.2c0-0.2,0.1-0.3,0.3-0.3
		c3.7,0,7.4,0,11.1,0c3.9,0,7.9,0,11.8,0c1.6,0,3.1,0,4.7,0c0.1,0,0.1,0,0.2,0c0,0.1,0,0.2,0,0.2C39.9,16.9,40,17.7,39.9,18.5z"/>
	<path id="XMLID_41_" class="st2" d="M24.1,0C10.8,0,0.1,10.7,0.1,24.1s10.7,24.1,24.1,24.1s24.1-10.7,24.1-24.1S37.5,0,24.1,0z
		 M38.2,34.1c-9.4,0-18.7,0-28.1,0c0-4.4,0-8.9,0-13.4c0.4,0.3,0.7,0.5,1.1,0.7c2.9,2,5.7,4,8.6,6c2.6,1.8,6.2,1.8,8.7,0
		c3.1-2.2,6.3-4.3,9.4-6.5c0.1-0.1,0.2-0.1,0.3-0.2C38.2,25.2,38.2,29.7,38.2,34.1z M38.2,16.6c0,0.1-0.1,0.3-0.2,0.3
		c-3.8,2.7-7.7,5.3-11.5,8c-1.3,0.9-3.5,0.9-4.8,0c-2.5-1.7-5-3.4-7.5-5.2c-1.3-0.9-2.6-1.8-3.9-2.7c-0.2-0.1-0.3-0.3-0.2-0.5
		c0-0.7,0-1.5,0-2.2c0-0.2,0.1-0.3,0.3-0.3c3.7,0,7.4,0,11.1,0c3.9,0,7.9,0,11.8,0c1.6,0,3.1,0,4.7,0c0.1,0,0.1,0,0.2,0
		c0,0.1,0,0.2,0,0.2C38.2,15,38.2,15.8,38.2,16.6z"/>
</g>
</svg>
