<?xml version="1.0" encoding="utf-8"?>
<!-- Generator: Adobe Illustrator 19.0.0, SVG Export Plug-In . SVG Version: 6.00 Build 0)  -->
<svg version="1.1" xmlns="http://www.w3.org/2000/svg" xmlns:xlink="http://www.w3.org/1999/xlink" x="0px" y="0px"
	 viewBox="-233 139 50 50" style="enable-background:new -233 139 50 50;" xml:space="preserve">
<style type="text/css">
	.st0{display:none;}
	.st1{display:inline;}
	.st2{fill:#A00000;}
	.st3{fill:#FF0000;}
	.st4{fill:#FFFFFF;}
	.st5{display:inline;fill:#A00000;}
</style>
<g id="Layer_2" class="st0">
	<g class="st1">
		<path id="XMLID_4_" class="st2" d="M-207.1,140.9c-13.3,0-24,10.7-24,24c0,13.3,10.7,24.1,24,24.1c13.3,0,24.1-10.7,24.1-24.1
			C-183,151.5-193.7,140.9-207.1,140.9z"/>
		<path id="XMLID_3_" class="st3" d="M-208.9,139c-13.4,0-24.1,10.7-24.1,24.1c0,13.4,10.7,24.1,24.1,24.1
			c13.4,0,24.1-10.7,24.1-24.1C-184.8,149.7-195.6,139-208.9,139z"/>
	</g>
</g>
<g id="Layer_1" class="st0">
	<g id="XMLID_14_" class="st1">
		<path id="XMLID_51_" class="st4" d="M-279.8,169.6c-3.7,0-8.6-2.6-13.5-7.1l0,0l0,0c-4.6-4.9-7.3-9.9-7.3-13.4
			c0-2,1.5-3.6,2.4-4.4c1-0.9,2.6-1.9,3.7-1.9c0.3,0,0.6,0.1,0.9,0.2l0.2,0.1l0.1,0.2c1.2,1.7,3,4.7,3,5.8c0,1-0.5,1.7-0.8,2.3
			c-0.3,0.5-0.5,0.8-0.5,1.1c0.2,0.6,1.8,2.8,3.9,4.6l0,0l0,0c1.7,1.8,3.2,3,3.6,3.2c0.3,0,0.6-0.2,1.1-0.5c0.6-0.4,1.5-0.9,2.6-0.9
			c1.7,0,5.8,3.3,5.9,3.4l0.1,0.1l0.1,0.2c0.2,0.3,0.3,0.5,0.3,0.8c0.1,1.4-0.4,2.8-1.5,4C-276.6,168.7-278.3,169.6-279.8,169.6z"/>
		<path id="XMLID_15_" class="st2" d="M-286.2,133c-13.3,0-24,10.7-24,24c0,13.3,10.7,24.1,24,24.1c13.3,0,24.1-10.7,24.1-24.1
			C-262.1,143.6-272.8,133-286.2,133z M-277.9,170.4c-8.3,0-21.7-14.2-21.7-21.4c0-2.7,3.7-5.3,5.1-5.3c1.6,0,5.1,6.1,5.1,7.2
			c0,1.3-1.3,2.1-1.3,3.5c0,1.4,5.3,7,6.7,7c1.3,0,2.1-1.3,3.7-1.3c1.3,0,7.2,4.3,7.2,5.3C-272.8,168-275.7,170.4-277.9,170.4z"/>
		<path id="XMLID_25_" class="st3" d="M-288,131.1c-13.4,0-24.1,10.7-24.1,24.1c0,13.4,10.7,24.1,24.1,24.1s24.1-10.7,24.1-24.1
			C-263.9,141.8-274.7,131.1-288,131.1z M-279.8,168.5c-8.3,0-21.7-14.2-21.7-21.4c0-2.7,3.7-5.3,5.1-5.3c1.6,0,5.1,6.1,5.1,7.2
			c0,1.3-1.3,2.1-1.3,3.5c0,1.3,5.3,7,6.7,7c1.3,0,2.1-1.3,3.7-1.3c1.3,0,7.2,4.3,7.2,5.3C-274.7,166.1-277.6,168.5-279.8,168.5z"/>
	</g>
	<path id="XMLID_2_" class="st5" d="M-207.1,140.9c-13.3,0-24,10.7-24,24c0,13.3,10.7,24.1,24,24.1c13.3,0,24.1-10.7,24.1-24.1
		C-183,151.5-193.7,140.9-207.1,140.9z"/>
	<g class="st1">
		<path id="XMLID_6_" class="st2" d="M-156.5,99c-13.3,0-24,10.7-24,24s10.7,24.1,24,24.1c13.3,0,24.1-10.7,24.1-24.1
			S-143.1,99-156.5,99z"/>
		<path id="XMLID_5_" class="st3" d="M-158.3,97.1c-13.4,0-24.1,10.7-24.1,24.1s10.7,24.1,24.1,24.1c13.4,0,24.1-10.7,24.1-24.1
			S-145,97.1-158.3,97.1z"/>
	</g>
	<g class="st1">
		<path class="st4" d="M-157.6,135.4c-2,0-4.1,0-6.1-0.1c-1.9-0.1-3.7-0.7-5.1-2.1c-1-0.9-1.6-2-2-3.3c-0.4-1.3-0.5-2.7-0.5-4
			c-0.1-3-0.1-6,0-8.9c0.1-1.1,0.1-2.3,0.4-3.3c0.5-2.3,1.8-3.9,4-4.9c1.1-0.5,2.2-0.7,3.4-0.8c3.2-0.3,6.5-0.2,9.7-0.1
			c1.1,0,2.1,0.1,3.2,0.2c1.9,0.3,3.6,1,4.9,2.5c0.8,0.9,1.3,2,1.5,3.2c0.2,0.9,0.3,1.9,0.3,2.8c0.2,3.3,0.2,6.6,0,10
			c-0.1,1-0.1,2-0.3,2.9c-0.5,2.4-1.9,4.2-4.2,5.1c-1.3,0.5-2.6,0.7-4,0.7C-154.2,135.4-155.9,135.4-157.6,135.4
			C-157.6,135.4-157.6,135.4-157.6,135.4z M-157.4,110.8c-1.7,0-3.4,0-5,0c-1,0-2,0.1-3,0.4c-1.3,0.4-2.2,1.2-2.6,2.5
			c-0.3,0.8-0.4,1.7-0.4,2.6c-0.1,2.7-0.1,5.3-0.1,8c0,1.5,0,3,0.3,4.4c0.2,1.1,0.9,2,1.9,2.6c1,0.5,2.1,0.7,3.1,0.8
			c3.6,0.1,7.3,0.1,10.9,0c0.8,0,1.6-0.1,2.3-0.4c1.2-0.4,2.2-1.1,2.7-2.4c0.3-0.9,0.4-1.8,0.4-2.7c0.1-2.7,0.1-5.5,0.1-8.2
			c0-1.4,0-2.8-0.3-4.1c-0.3-1.6-1.3-2.6-2.8-3.1c-1-0.3-2-0.4-2.9-0.4C-154.3,110.8-155.9,110.8-157.4,110.8z"/>
		<path class="st4" d="M-150.9,121.9c0,2.9-1.8,5.5-4.5,6.5c-3.1,1.1-6.6-0.3-8.2-3.2c-1.9-3.6-0.4-7.9,3.3-9.6
			c3.1-1.4,6.8-0.1,8.5,2.9C-151.2,119.6-150.9,120.7-150.9,121.9z M-153.8,121.9c0-2.2-1.8-4-3.9-4c-2.1,0-3.9,1.8-3.9,4
			c0,2.2,1.8,4,3.9,4C-155.5,125.9-153.8,124.1-153.8,121.9z"/>
		<path class="st4" d="M-151.9,115.1c0-0.9,0.7-1.6,1.6-1.6c0.9,0,1.6,0.7,1.6,1.6c0,0.9-0.7,1.6-1.6,1.6
			C-151.2,116.7-151.9,116-151.9,115.1z"/>
	</g>
</g>
<g id="Layer_3">
	<g>
		<path class="st2" d="M-200.4,154.7c-0.9-0.3-1.8-0.4-2.7-0.4c-1.4,0-2.9,0-4.3,0c-1.6,0-3.1,0-4.7,0c-0.9,0-1.9,0.1-2.8,0.4
			c-1.2,0.4-2,1.1-2.4,2.3c-0.3,0.8-0.3,1.6-0.4,2.4c-0.1,2.5-0.1,4.9-0.1,7.4c0,1.4,0,2.7,0.3,4.1c0.2,1.1,0.8,1.9,1.8,2.4
			c0.9,0.5,1.9,0.7,2.9,0.7c3.4,0.1,6.7,0.1,10.1,0c0.7,0,1.5-0.1,2.2-0.3c1.2-0.4,2-1,2.5-2.2c0.3-0.8,0.4-1.7,0.4-2.5
			c0.1-2.5,0.1-5.1,0.1-7.6c0-1.3,0-2.6-0.3-3.8C-198.1,156.1-199,155.1-200.4,154.7z M-205.6,170.5c-2.9,1-6.1-0.2-7.5-3
			c-1.7-3.3-0.4-7.3,3-8.8c2.9-1.3,6.3-0.1,7.9,2.7c0.5,1,0.8,2,0.8,3.1C-201.4,167.2-203.1,169.6-205.6,170.5z M-201.3,159.2
			c-0.8,0-1.4-0.6-1.4-1.5c0-0.8,0.6-1.5,1.4-1.5c0.8,0,1.4,0.7,1.4,1.5C-199.8,158.5-200.5,159.2-201.3,159.2z"/>
		<path class="st2" d="M-207.7,161.7c-1.5,0-2.7,1.2-2.6,2.7c0,1.5,1.2,2.7,2.7,2.7c1.5,0,2.7-1.2,2.7-2.7
			C-205.1,162.9-206.3,161.7-207.7,161.7z"/>
		<path class="st2" d="M-207.1,140.8c-13.4,0-24.1,10.7-24.1,24.1c0,13.4,10.7,24.1,24.1,24.1c13.4,0,24.1-10.7,24.1-24.1
			C-183,151.5-193.8,140.8-207.1,140.8z M-192.8,170.2c-0.1,1-0.1,2-0.3,2.9c-0.5,2.4-1.9,4.2-4.2,5.1c-1.3,0.5-2.6,0.7-4,0.7
			c-1.7,0-3.4,0-5.2,0c0,0,0,0,0,0.1c-2,0-4.1,0-6.1-0.1c-1.9-0.1-3.7-0.7-5.1-2.1c-1-0.9-2.4-2.7-2.8-4c-0.4-1.3-0.5-2.7-0.5-4
			c-0.1-3-0.1-6,0-8.9c0.1-1.1,0.1-2.3,0.4-3.3c0.5-2.3,1.8-4.5,4.3-5.2c1.1-0.3,2.2-0.7,3.4-0.8c3.2-0.3,6.5-0.2,9.7-0.1
			c1.1,0,2.1,0.1,3.2,0.2c1.9,0.3,3.6,1,4.9,2.5c0.8,0.9,1.8,3,2,4.2c0.2,0.9,0.3,1.9,0.3,2.8C-192.6,163.6-192.6,166.9-192.8,170.2
			z"/>
	</g>
	<g>
		<path class="st3" d="M-201,153.9c-0.9-0.3-1.8-0.4-2.7-0.4c-1.4,0-2.9,0-4.3,0c-1.6,0-3.1,0-4.7,0c-0.9,0-1.9,0.1-2.8,0.4
			c-1.2,0.4-2,1.1-2.4,2.3c-0.3,0.8-0.3,1.6-0.4,2.4c-0.1,2.5-0.1,4.9-0.1,7.4c0,1.4,0,2.7,0.3,4.1c0.2,1.1,0.8,1.9,1.8,2.4
			c0.9,0.5,1.9,0.7,2.9,0.7c3.4,0.1,6.7,0.1,10.1,0c0.7,0,1.5-0.1,2.2-0.3c1.2-0.4,2-1,2.5-2.2c0.3-0.8,0.4-1.7,0.4-2.5
			c0.1-2.5,0.1-5.1,0.1-7.6c0-1.3,0-2.6-0.3-3.8C-198.7,155.3-199.6,154.4-201,153.9z M-206.2,169.7c-2.9,1-6.1-0.2-7.5-3
			c-1.7-3.3-0.4-7.3,3-8.8c2.9-1.3,6.3-0.1,7.9,2.7c0.5,1,0.8,2,0.8,3.1C-202,166.5-203.7,168.9-206.2,169.7z M-201.5,159
			c-0.8,0-1.4-0.6-1.4-1.5c0-0.8,0.6-1.5,1.4-1.5c0.8,0,1.4,0.7,1.4,1.5C-200.1,158.3-200.7,159-201.5,159z"/>
		<path class="st3" d="M-208.2,161.2c-1.5,0-2.7,1.2-2.6,2.7c0,1.5,1.2,2.7,2.7,2.7c1.5,0,2.7-1.2,2.7-2.7
			C-205.5,162.4-206.7,161.2-208.2,161.2z"/>
		<path class="st3" d="M-208.9,139c-13.4,0-24.1,10.7-24.1,24.1c0,13.4,10.7,24.1,24.1,24.1c13.4,0,24.1-10.7,24.1-24.1
			C-184.8,149.7-195.6,139-208.9,139z M-194.6,168.4c-0.1,1-0.1,2-0.3,2.9c-0.5,2.4-1.9,4.2-4.2,5.1c-1.3,0.5-2.6,0.7-4,0.7
			c-1.7,0-3.4,0-5.2,0c0,0,0,0,0,0.1c-2,0-4.1,0-6.1-0.1c-1.9-0.1-3.7-0.7-5.1-2.1c-1-0.9-1.6-2-2-3.3c-0.4-1.3-0.5-2.7-0.5-4
			c-0.1-3-0.1-6,0-8.9c0.1-1.1,0.1-2.3,0.4-3.3c0.5-2.3,1.8-3.9,4-4.9c1.1-0.5,2.2-0.7,3.4-0.8c3.2-0.3,6.5-0.2,9.7-0.1
			c1.1,0,2.1,0.1,3.2,0.2c1.9,0.3,3.6,1,4.9,2.5c0.8,0.9,1.3,2,1.5,3.2c0.2,0.9,0.3,1.9,0.3,2.8
			C-194.4,161.8-194.4,165.1-194.6,168.4z"/>
	</g>
</g>
</svg>
