<?xml version="1.0" encoding="utf-8"?>
<!-- Generator: Adobe Illustrator 19.0.0, SVG Export Plug-In . SVG Version: 6.00 Build 0)  -->
<svg version="1.1" id="Layer_1" xmlns="http://www.w3.org/2000/svg" xmlns:xlink="http://www.w3.org/1999/xlink" x="0px" y="0px"
	 viewBox="-257.2 134.3 58.4 58.3" style="enable-background:new -257.2 134.3 58.4 58.3;" xml:space="preserve">
<style type="text/css">
	.st0{fill:#FFFFFF;}
</style>
<g>
	<path class="st0" d="M-228,192.7c-4.3-0.1-8.6,0-12.8-0.2c-4.1-0.2-7.7-1.5-10.8-4.3c-2.1-1.9-3.4-4.3-4.3-7
		c-0.9-2.8-1-5.7-1.1-8.5c-0.3-6.3-0.3-12.6,0-18.8c0.1-2.4,0.3-4.8,0.8-7.1c1-4.8,3.8-8.3,8.4-10.4c2.3-1,4.7-1.5,7.2-1.7
		c6.8-0.6,13.7-0.3,20.5-0.3c2.2,0,4.5,0.2,6.7,0.5c4.1,0.5,7.7,2.1,10.4,5.3c1.7,1.9,2.8,4.2,3.2,6.7c0.3,2,0.6,4,0.7,6
		c0.4,7,0.4,14,0,21c-0.1,2.1-0.3,4.2-0.7,6.2c-1.1,5.1-4.1,8.8-8.9,10.9c-2.7,1.1-5.5,1.5-8.4,1.5c-3.6,0-7.2,0-10.9,0
		C-228,192.6-228,192.6-228,192.7z M-227.6,140.8c-3.5,0-7.1,0-10.6,0c-2.1,0-4.3,0.2-6.3,0.9c-2.7,0.9-4.6,2.6-5.5,5.2
		c-0.6,1.8-0.8,3.6-0.8,5.5c-0.1,5.6-0.2,11.2-0.2,16.8c0,3.1,0,6.3,0.7,9.3c0.5,2.4,1.8,4.3,4,5.5c2.1,1.2,4.3,1.5,6.6,1.6
		c7.7,0.3,15.4,0.2,23.1,0c1.7,0,3.3-0.3,4.9-0.8c2.6-0.8,4.6-2.4,5.6-5c0.7-1.8,0.9-3.8,0.9-5.7c0.1-5.8,0.2-11.6,0.2-17.4
		c0-2.9-0.1-5.9-0.7-8.7c-0.7-3.3-2.7-5.4-5.9-6.5c-2-0.7-4.1-0.9-6.2-0.9C-221,140.8-224.3,140.8-227.6,140.8z"/>
	<path class="st0" d="M-213.9,164.1c0,6.2-3.8,11.6-9.5,13.7c-6.6,2.3-13.9-0.6-17.2-6.8c-4-7.5-0.8-16.7,6.9-20.2
		c6.5-2.9,14.4-0.2,17.9,6.2C-214.5,159.2-213.9,161.5-213.9,164.1z M-219.9,164.1c0-4.6-3.7-8.4-8.3-8.3c-4.5,0-8.2,3.8-8.2,8.4
		c0,4.6,3.7,8.4,8.3,8.4C-223.6,172.5-219.9,168.7-219.9,164.1z"/>
	<path class="st0" d="M-215.9,149.8c0-1.9,1.4-3.3,3.3-3.3c1.8,0,3.3,1.5,3.3,3.3c0,1.8-1.5,3.3-3.3,3.3
		C-214.5,153.1-215.9,151.6-215.9,149.8z"/>
</g>
</svg>
