<?xml version="1.0" encoding="utf-8"?>
<!-- Generator: Adobe Illustrator 19.0.0, SVG Export Plug-In . SVG Version: 6.00 Build 0)  -->
<svg version="1.1" id="Layer_1" xmlns="http://www.w3.org/2000/svg" xmlns:xlink="http://www.w3.org/1999/xlink" x="0px" y="0px"
	 viewBox="0 0 69 62.2" style="enable-background:new 0 0 69 62.2;" xml:space="preserve">
<style type="text/css">
	.st0{fill:#F0F0F0;}
</style>
<path id="XMLID_77_" class="st0" d="M69,62.2c-19.5,0-38.9,0-58.2,0c0,0,0-0.1-0.1-0.1c0.2-0.1,0.4-0.2,0.6-0.2
	c1.6-0.5,3.3-1,4.9-1.5c0.5-0.1,0.7-0.4,0.8-0.8c0.1-0.6,0.4-1.2,0.5-1.9c0.1-0.8,0.6-1.2,1.3-1.3c2.5-0.6,5-1.1,7.5-1.7
	c0.3-0.1,0.5-0.2,0.8-0.2c1.3,0,1.8-0.8,1.9-1.9c0-1,0.1-2,0-3.1c-0.2-1.5-0.5-3-0.7-4.5c-0.4-3.1,0.4-5.7,2.9-7.7
	c0.2-0.1,0.3-0.3,0.3-0.5c0.2-1.6,0.4-3.1,0.6-4.7c0-0.1,0-0.1-0.1-0.3c-0.3,0-0.6,0.1-0.9,0.1c-0.9,0.2-1.5-0.1-1.6-1.1
	c-0.1-1.5-0.8-2.7-1.8-3.8c-0.3,0.2-0.5,0.3-0.8,0.5c-3.1,2.2-6.5,3.7-10.3,4.3c-0.9,0.2-1.8,0-2.6-0.5c-0.9-0.5-1.8-1-2.6-2
	c0.4,0,0.6-0.1,0.8-0.1c0.5,0,1.1,0.1,1.6,0.1c1.7,0.1,3.4-1.3,3.8-3c0.3-1.5-0.7-3.3-2.4-3.9c-1-0.3-2.1-0.4-3.2-0.5
	c-1.1-0.1-2.3,0-3.4-0.2c-3.4-0.4-4.6-3.1-2.9-6c0.1-0.1,0.2-0.3,0.3-0.6C4,15,2,15.2,0,16.2c0.1-0.4,0.1-0.6,0.1-0.9
	C0.6,13.6,1.6,12.2,3,11c1.2-1.1,2.8-1.4,4.4-1.2c2.2,0.3,4.4,0.7,6.6,1.1c3.5,0.8,6.7,0.1,9.8-1.6c1-0.6,2.1-1.2,3.2-1.6
	c0.6-0.2,1.3-0.2,2-0.3c0.6-0.1,1.2-0.2,1.7-0.2c0.5,0,0.9,0,1.4,0c0.3,0,0.7,0,0.8-0.2c0.4-0.8,0.8-1.6,1.2-2.3
	c0-0.1,0.1-0.3,0-0.3c-0.6-0.9-0.1-1.8,0-2.7c0.1-1.2,1-2,2.2-1.6c0.2,0,0.3,0.1,0.5,0.1c1.4,0.1,1.7,0.6,1.6,2
	c-0.1,1.5-0.1,3-0.2,4.4c0,0.2,0,0.5,0.2,0.7c0.2,0.3,0.5,0.5,0.9,0.3c0.5-0.3,1-0.5,1.5,0c0.1,0.1,0.4,0,0.6,0.1
	c0.4,0.1,1,0.2,1.2,0.5c0.4,0.5,1,0.7,1.6,0.9c1.4,0.4,2.4,1.3,2.4,2.8c0.1,1.9-0.1,3.9-0.1,5.9c0,0.3,0,0.7,0.2,1
	c0.4,0.7,0.4,1.4,0.3,2.1c-0.2,1.3-0.3,2.6-0.5,3.9c-0.1,0.4,0.1,0.8,0.5,1c2.6,1.6,4.5,4,6.6,6.2c0.2,0.2,0.3,0.8,0.1,1.2
	c-0.6,1.7-1.2,3.4-1.9,5c-0.8,1.8-1.9,3.5-2.8,5.3c-0.2,0.3-0.3,0.7-0.3,1.1c-0.1,0.8,0.5,1.3,1.3,1.1c2.6-0.7,5.2-1.3,7.8-2
	c1.2-0.3,2.2-0.1,3.1,0.6c1.5,1.2,3.1,2.2,4.6,3.3c0.3,0.2,0.6,0.6,0.6,0.9c0.9,4.3,1.9,8.6,2.8,13C68.9,61.6,68.9,61.9,69,62.2z
	 M31.4,53.4c2.9-0.7,5.7-1.3,8.5-2c0.2,0,0.4-0.4,0.4-0.6c0.1-0.7,0.2-1.5,0.2-2.2c0-0.6,0.3-0.8,0.8-1c0.8-0.2,1.7-0.5,2.5-0.6
	c1.6-0.1,2.2-1.2,2.7-2.5c0.1-0.2,0.2-0.5,0.2-0.7c0.2-1.6,0.4-3.1,0.4-4.7c0.1-2.2,0.3-4.3,1.5-6.2c0,0,0-0.1-0.1-0.3
	c-2.7-1.2-5.5-2.4-8.4-3.7c-0.1,0.1-0.2,0.2-0.2,0.3c-1.4,2.2-2.8,4.5-4.2,6.7c-0.9,1.5-2,2.9-1.9,4.8c0,0.2-0.1,0.4-0.1,0.6
	c-0.7,2.5-1.4,5-2,7.5C31.3,50.4,31.1,51.8,31.4,53.4z M34.5,19.6c-1.2,1.5-2.4,3-3.6,4.5c-0.1,0.1-0.1,0.3-0.1,0.5
	c0.1,1,0.2,2.1,0.4,3.1c0,0.2,0.2,0.4,0.4,0.4c0.4,0.2,0.9,0.3,1.5,0.5c0.6-2.1,1.2-4.2,1.8-6.4C35,21.4,35,20.5,34.5,19.6z
	 M43.1,11.7c0,0,0.1-0.3,0.1-0.3c-0.2-0.2-0.5-0.4-0.7-0.4c-0.6,0.1-1,0-1.5-0.3c-0.6-0.4-1.3-0.5-2-0.2c-0.2,0.1-0.3,0.4-0.5,0.6
	c0.2,0.1,0.4,0.3,0.7,0.3c0.7,0,1.5-0.1,2.2,0C42,11.4,42.5,11.6,43.1,11.7z M34.8,5.9c0.1,0,0.1,0,0.2,0c0-0.9,0-1.7,0-2.6
	c0-0.3-0.3-0.6,0-1c0.2-0.2,0-0.6,0-1C33.8,2.9,34,4.4,34.8,5.9z M40.1,21.3c0.1-0.5,0.1-1,0.2-1.5c-0.4,0-0.7,0-1.1,0
	c-0.6,0-0.8,0.3-0.7,0.8c0,0.5,0.2,0.7,0.7,0.6C39.4,21.3,39.8,21.3,40.1,21.3z M35.3,21.8c0.4-0.1,0.7-0.2,1.1-0.2
	c0.9-0.2,1-0.5,0.6-1.4C35.2,20.3,35,20.4,35.3,21.8z M41.3,21.4c0.4-0.1,1,0,1-0.7c0-0.6-0.5-0.7-1-0.7c-0.5,0-1,0.2-1,0.7
	C40.3,21.2,40.8,21.3,41.3,21.4z M41.8,12.5c-1.2-0.4-2.3-0.2-3.5,0c0.9,0.7,0.8,0.7,1.7,0.2c0.2-0.1,0.7-0.1,0.8,0
	C41.2,13.3,41.5,12.8,41.8,12.5z M34.2,5.4c-0.5,0.8-0.9,1.4-1.3,2.1c-0.1,0.1,0,0.4,0,0.5c0.2-0.1,0.4-0.1,0.5-0.2
	c0.3-0.5,0.6-1.1,0.9-1.6C34.4,6,34.3,5.7,34.2,5.4z M42.4,21.4c0.1,0,0.4,0,0.6,0.1c-0.1-0.6,0.4-1.2-0.5-1.5
	C42.5,20.5,42.4,21,42.4,21.4z M37.2,10.2c-0.7,0.1-1.2,0.8-0.9,1.3C36.6,11.1,36.9,10.7,37.2,10.2z"/>
</svg>
